<?xml version="1.0" standalone="no"?>
<!DOCTYPE svg PUBLIC "-//W3C//DTD SVG 20010904//EN"
 "http://www.w3.org/TR/2001/REC-SVG-20010904/DTD/svg10.dtd">
<svg version="1.0" xmlns="http://www.w3.org/2000/svg"
 width="952.000000pt" height="1280.000000pt" viewBox="0 0 952.000000 1280.000000"
 preserveAspectRatio="xMidYMid meet">
<metadata>
Created by potrace 1.15, written by Peter Selinger 2001-2017
</metadata>
<g transform="translate(0.000000,1280.000000) scale(0.100000,-0.100000)"
fill="#000000" stroke="none">
<path d="M8373 12778 c-63 -69 -65 -133 -14 -383 23 -114 52 -298 66 -430 39
-354 55 -473 76 -565 51 -218 65 -539 34 -777 -27 -203 -81 -407 -113 -427 -5
-3 -17 4 -25 17 -22 34 -65 173 -77 249 -12 77 -14 310 -4 386 9 72 -3 137
-32 172 -47 55 -77 35 -114 -76 -39 -115 -76 -137 -162 -93 -96 49 -201 174
-288 345 -29 54 -58 104 -66 110 -7 6 -27 37 -43 70 -36 71 -83 124 -110 124
-31 0 -54 -29 -47 -59 3 -14 11 -87 17 -161 11 -126 15 -143 61 -255 80 -197
336 -718 379 -771 69 -86 98 -135 120 -202 19 -58 21 -78 15 -171 -13 -209
-49 -306 -194 -526 -98 -147 -194 -247 -452 -468 -233 -199 -284 -237 -559
-409 -432 -272 -564 -381 -741 -609 -52 -67 -167 -213 -255 -323 -88 -111
-172 -223 -186 -251 -60 -114 -179 -327 -209 -372 -51 -75 -67 -85 -124 -78
-26 3 -58 13 -70 21 -21 13 -25 12 -41 -6 -16 -18 -16 -20 -2 -20 24 0 21 -17
-8 -45 -24 -25 -49 -31 -79 -19 -20 8 -21 24 -2 24 8 0 17 3 19 8 8 14 -14 72
-26 72 -20 0 -61 -49 -86 -102 -13 -27 -26 -48 -29 -48 -4 0 -14 17 -23 38 -8
20 -28 43 -43 51 -25 14 -32 13 -91 -17 -36 -17 -72 -29 -80 -26 -9 4 -34 -1
-55 -11 -44 -20 -70 -10 -70 27 0 17 -3 18 -15 8 -12 -10 -18 -10 -30 0 -24
20 -88 50 -108 50 -10 0 -26 -7 -34 -16 -17 -16 -36 -15 -90 7 -32 13 -33 12
-78 -34 -24 -26 -50 -47 -56 -47 -16 0 -448 429 -510 507 -83 103 -353 324
-466 381 -32 16 -98 46 -147 67 -74 30 -94 35 -113 26 -19 -9 -25 -8 -28 4 -3
8 -7 21 -9 29 -6 18 -174 118 -440 261 -359 194 -470 269 -634 429 -131 127
-157 170 -156 251 1 132 132 424 272 610 137 181 320 605 261 605 -25 0 -51
-25 -114 -115 -80 -113 -117 -144 -216 -184 -76 -31 -89 -30 -123 7 -18 20
-17 25 8 179 15 87 43 228 63 313 38 163 49 250 39 305 -5 23 -11 32 -21 29
-15 -6 -88 -152 -130 -259 -15 -38 -51 -117 -80 -175 -29 -58 -68 -154 -85
-214 -17 -60 -40 -132 -50 -160 -10 -28 -26 -78 -35 -111 -9 -33 -36 -123 -60
-200 -24 -77 -46 -157 -50 -178 -6 -38 -7 -39 -26 -21 -32 29 -97 173 -116
254 -15 65 -17 144 -17 605 0 589 4 653 60 903 38 167 72 366 81 470 6 65 -10
254 -27 327 -5 22 -12 56 -15 76 -4 25 -12 38 -25 42 -11 3 -20 13 -20 23 0
16 1 16 20 -1 20 -18 20 -18 16 11 -3 16 -8 51 -11 78 -3 27 -11 57 -18 65 -8
9 -31 61 -52 115 -36 93 -86 175 -111 183 -15 5 -32 -160 -39 -377 -11 -345
-33 -505 -96 -706 -108 -340 -134 -438 -170 -629 -59 -308 -62 -351 -55 -705
7 -396 19 -528 56 -642 51 -153 152 -340 322 -594 52 -77 131 -214 176 -305
46 -94 106 -197 140 -242 94 -124 257 -301 359 -388 111 -96 133 -123 133
-160 0 -27 -3 -29 -39 -29 -21 0 -49 8 -62 18 -13 10 -85 38 -159 61 -112 36
-155 45 -255 52 -66 5 -147 13 -180 19 -66 12 -315 27 -606 37 -152 5 -204 3
-281 -11 -92 -17 -97 -19 -205 -96 -80 -57 -119 -93 -141 -127 l-30 -48 11
-161 c9 -141 9 -166 -6 -211 l-17 -51 35 -82 c20 -47 35 -98 35 -121 0 -38 32
-135 51 -154 7 -7 8 -4 4 8 -4 9 -3 17 3 17 11 0 27 -43 36 -101 5 -29 35 -64
169 -200 198 -199 506 -540 569 -629 58 -82 110 -135 151 -157 18 -9 26 -18
20 -20 -22 -8 -14 -53 12 -79 14 -14 38 -30 55 -35 18 -7 30 -19 32 -32 3 -20
8 -22 67 -19 59 4 64 2 51 -12 -21 -26 27 -68 139 -123 53 -25 117 -61 143
-79 94 -64 281 -112 493 -125 182 -12 250 -5 378 42 59 21 410 89 461 89 3 0
10 -18 16 -40 9 -35 14 -40 40 -40 26 0 30 -4 36 -38 10 -53 31 -91 59 -104
14 -6 32 -31 45 -62 12 -28 40 -87 63 -131 22 -44 47 -105 54 -135 8 -30 18
-71 23 -90 5 -19 10 -58 10 -87 0 -67 18 -149 35 -163 10 -8 14 -1 20 36 7 52
24 94 37 94 4 0 8 -23 8 -50 0 -28 13 -106 30 -175 16 -69 30 -140 30 -158 0
-24 10 -45 34 -74 30 -34 37 -54 51 -134 10 -52 37 -161 61 -244 142 -490 174
-763 169 -1420 -2 -249 1 -364 11 -430 8 -49 23 -152 34 -229 36 -249 123
-553 246 -858 73 -181 103 -243 138 -285 31 -37 66 -124 66 -164 0 -25 3 -30
17 -25 21 9 33 -11 26 -45 -4 -23 24 -95 54 -138 2 -3 13 5 26 17 28 26 36 27
73 7 41 -21 53 -19 60 13 3 15 10 38 16 52 l11 25 13 -32 c20 -47 55 -67 109
-61 57 7 115 49 115 84 l0 25 33 -25 c19 -15 38 -26 42 -26 5 0 17 -8 27 -17
17 -15 20 -15 28 -3 6 8 10 27 10 42 0 39 16 43 29 7 6 -17 15 -28 20 -25 5 3
21 35 36 71 16 36 34 65 41 65 19 0 28 -44 14 -70 -14 -27 -6 -66 16 -74 22
-8 83 23 107 56 10 13 21 42 24 64 4 33 -1 46 -31 89 -32 45 -34 51 -20 66 29
32 134 35 134 4 0 -7 -12 -20 -26 -30 -27 -17 -27 -18 -21 -108 7 -112 27
-142 27 -41 0 43 5 77 13 88 12 17 15 14 28 -30 7 -27 12 -54 11 -60 -3 -15
31 -24 99 -24 42 0 65 6 90 23 31 21 36 32 65 142 16 66 37 134 46 150 15 28
78 95 78 83 0 -3 -14 -36 -31 -74 -19 -41 -31 -84 -31 -105 1 -26 -5 -42 -23
-59 -27 -26 -33 -66 -12 -94 16 -21 40 -13 58 20 7 14 22 30 32 36 15 8 20 5
24 -11 3 -12 8 -21 12 -21 14 0 31 25 31 46 0 13 20 64 45 115 25 51 45 102
45 114 0 12 13 47 30 78 27 50 29 65 32 171 3 106 5 117 27 138 l23 23 -7 -40
c-3 -22 -13 -50 -21 -62 -15 -23 -19 -63 -7 -63 4 0 17 12 29 28 21 25 23 26
30 8 7 -17 2 -35 -37 -133 -15 -36 -9 -48 18 -39 27 10 63 73 63 112 0 71 35
106 67 67 l21 -26 7 36 c9 45 20 47 34 6 15 -44 28 -29 41 54 13 80 61 196 67
162 2 -11 -3 -45 -11 -75 -8 -30 -13 -56 -11 -58 12 -12 52 30 100 102 30 47
61 86 67 88 8 3 12 21 12 45 -1 36 2 42 30 54 28 13 31 18 30 56 0 23 -13 69
-28 104 -16 34 -31 80 -34 102 -5 39 -4 40 22 35 20 -4 35 1 53 18 15 13 28
23 30 21 2 -2 -6 -24 -17 -48 -24 -55 -25 -81 -2 -142 18 -48 32 -53 32 -12 0
12 9 33 19 47 21 26 69 154 78 206 6 38 16 41 31 8 18 -41 48 -22 84 52 31 62
33 74 33 164 -1 95 6 122 21 76 10 -33 24 -48 40 -41 19 7 18 28 -6 96 -11 31
-20 66 -20 78 0 12 8 23 20 26 11 3 20 13 20 22 0 30 10 29 48 -6 l37 -34 3
25 c2 13 -4 39 -13 56 -18 34 -11 50 29 72 33 18 109 27 124 15 10 -8 11 -2 7
29 -7 38 -6 39 37 59 32 15 51 34 76 75 30 51 36 56 110 83 83 30 122 59 122
89 0 11 5 28 10 39 9 16 7 19 -11 19 -16 0 -19 4 -14 18 4 9 10 31 12 47 8 53
15 62 24 31 5 -19 4 -35 -2 -42 -14 -17 -2 -51 21 -64 15 -8 21 -6 30 9 5 11
10 26 10 33 0 7 9 19 21 26 17 11 20 20 15 45 -4 18 -8 56 -9 85 l-3 54 23
-28 c14 -18 18 -31 12 -35 -11 -7 46 -79 62 -79 5 0 9 13 9 30 0 21 8 36 31
52 17 13 36 33 43 46 11 21 8 27 -27 65 -21 23 -50 61 -64 84 -50 86 -5 140
56 67 39 -48 31 -60 -9 -13 -16 19 -29 29 -30 23 0 -18 80 -133 100 -144 25
-14 28 -13 26 8 -1 12 7 18 27 20 32 4 34 13 7 37 -32 29 -24 34 32 19 29 -7
56 -10 60 -6 16 16 -12 70 -40 77 -15 4 -21 9 -15 13 19 12 -10 77 -78 176
-63 93 -165 206 -184 206 -14 0 -55 72 -55 95 0 21 -36 86 -173 319 -126 212
-384 691 -484 896 -146 299 -194 459 -145 474 24 8 46 86 38 136 -7 44 -7 45
28 29 21 -10 31 -8 68 14 24 15 63 51 88 81 48 58 115 99 182 109 56 8 135 52
218 118 92 74 129 93 165 79 19 -7 25 -6 25 4 0 7 28 24 63 36 202 73 649 341
752 450 27 29 86 76 130 105 84 54 159 132 170 178 4 15 21 35 39 46 50 32
106 95 121 137 9 26 27 49 56 69 87 62 118 189 63 255 -15 17 -24 33 -22 36 8
7 78 -25 78 -36 0 -13 36 -13 61 0 10 6 19 17 19 26 0 20 36 91 51 100 8 5 10
-1 7 -20 -4 -17 -1 -25 6 -23 6 2 22 48 36 103 22 89 31 106 81 169 31 39 64
84 73 102 22 44 21 88 -4 99 -17 8 -13 14 37 54 59 47 74 77 103 200 7 30 26
86 43 124 33 80 32 125 -5 156 l-23 20 21 18 c12 9 30 22 40 28 15 9 19 26 22
86 4 69 2 77 -22 103 -15 16 -29 40 -33 54 -19 82 -89 129 -277 190 -168 55
-282 76 -353 66 -79 -11 -231 -52 -353 -95 -63 -22 -122 -40 -131 -40 -10 0
-19 -3 -21 -7 -3 -8 -89 -48 -233 -109 -106 -46 -277 -130 -400 -199 -82 -46
-255 -125 -273 -125 -16 0 57 61 228 188 237 177 443 377 528 512 140 223 202
308 343 470 162 188 205 246 248 343 48 108 83 279 111 547 24 230 36 309 56
370 11 33 14 69 11 112 -3 35 -10 158 -16 273 -24 470 -49 638 -133 895 -17
52 -44 124 -61 160 -16 36 -47 113 -69 172 -21 59 -54 133 -74 165 -19 31 -55
121 -80 199 -43 133 -94 244 -112 244 -5 0 -18 -10 -29 -22z m85 -182 c33
-136 48 -180 98 -299 92 -219 115 -338 77 -410 -15 -29 -17 -30 -23 -12 -4 11
-16 63 -25 115 -10 52 -24 113 -31 135 -7 22 -34 108 -60 190 -54 173 -63 193
-74 175 -24 -39 -52 118 -30 171 l14 32 22 -28 c12 -16 27 -47 32 -69z m101
-729 c6 -53 11 -128 11 -167 0 -39 7 -99 16 -133 13 -54 21 -65 54 -86 62 -38
94 -130 92 -258 -1 -40 2 -74 7 -77 15 -10 34 -168 27 -231 -3 -33 -9 -84 -12
-114 -3 -29 -2 -57 4 -63 6 -6 3 -46 -9 -111 -10 -56 -18 -122 -18 -147 1
-126 -7 -299 -13 -306 -17 -17 -20 4 -18 181 1 70 -5 108 -26 177 l-27 88 20
83 c19 76 20 99 12 312 -4 127 -11 268 -14 314 -7 82 -8 84 -24 62 -16 -21
-17 -22 -34 -3 -41 45 -78 253 -83 472 -3 148 -2 162 10 134 8 -16 19 -74 25
-127z m170 -3 c18 -36 27 -129 13 -138 -5 -3 -13 10 -17 31 -4 21 -13 50 -21
65 -18 34 -19 81 -1 76 6 -3 18 -18 26 -34z m-83 -115 c18 -38 29 -78 29 -103
-1 -45 -24 -136 -35 -136 -8 0 -27 133 -34 238 -2 34 -1 62 3 62 4 0 21 -28
37 -61z m-7396 14 c0 -21 -5 -45 -10 -53 -7 -11 -10 0 -10 38 0 28 5 52 10 52
6 0 10 -17 10 -37z m66 -268 c-17 -349 -37 -477 -93 -592 l-36 -74 7 -108 c6
-103 5 -114 -28 -227 -38 -137 -73 -316 -82 -424 -6 -82 27 -385 47 -421 10
-20 11 -20 24 -2 18 24 19 19 39 -127 10 -69 31 -161 54 -230 46 -138 55 -170
45 -170 -12 1 -101 201 -140 314 -78 228 -110 401 -123 676 -15 313 -1 393
141 838 78 241 100 348 109 520 5 89 12 173 16 185 7 22 7 22 16 -3 6 -15 7
-80 4 -155z m7477 109 c4 -32 19 -119 33 -193 29 -164 32 -278 7 -297 -10 -7
-21 -14 -24 -14 -4 0 -7 48 -6 108 0 79 -5 119 -17 152 -10 25 -24 67 -32 94
-8 28 -18 54 -24 60 -28 28 10 164 43 153 7 -2 16 -30 20 -63z m-7643 -68 c0
-14 -4 -28 -10 -31 -6 -4 -10 7 -10 24 0 17 5 31 10 31 6 0 10 -11 10 -24z
m71 -288 c-7 -35 -23 -92 -35 -128 -13 -36 -45 -126 -70 -200 -26 -74 -52
-140 -58 -147 -10 -13 -68 -19 -68 -7 0 3 17 37 37 76 24 48 33 73 25 76 -19
6 -14 38 13 92 13 27 45 109 70 182 25 73 48 139 51 147 4 12 9 10 26 -7 21
-21 21 -25 9 -84z m6377 78 c3 -12 -1 -17 -10 -14 -7 3 -15 13 -16 22 -3 12 1
17 10 14 7 -3 15 -13 16 -22z m112 -264 c0 -9 13 -33 28 -52 40 -49 54 -78 47
-99 -4 -13 1 -20 15 -24 19 -5 21 -10 15 -54 l-7 -48 34 38 c41 46 52 41 84
-47 20 -57 22 -68 9 -72 -31 -12 -44 3 -38 45 6 45 -3 52 -30 20 -25 -29 -60
-21 -70 16 -5 17 -35 83 -68 147 -32 64 -59 124 -59 133 0 8 9 15 20 15 12 0
20 -7 20 -18z m1138 -94 l-13 -23 -3 26 c-2 14 3 38 10 55 l12 29 4 -32 c2
-18 -3 -42 -10 -55z m-574 -24 c7 -19 -1 -58 -21 -97 -29 -59 -46 12 -19 78
16 38 30 44 40 19z m576 -424 c-6 -63 -16 -133 -23 -155 l-12 -40 -3 53 c-6
105 16 469 30 494 11 20 13 7 16 -107 2 -71 -2 -182 -8 -245z m-220 340 c0
-11 -4 -20 -10 -20 -5 0 -10 9 -10 20 0 11 5 20 10 20 6 0 10 -9 10 -20z
m-7624 -136 c9 -37 -1 -135 -25 -239 -24 -102 -33 -121 -51 -110 -9 6 -11 25
-6 69 8 84 57 306 67 306 5 0 12 -12 15 -26z m7071 -70 c31 -60 46 -71 33 -23
-9 29 1 69 17 69 21 0 103 -129 103 -162 0 -11 16 -55 51 -143 4 -11 18 -60
30 -110 12 -49 35 -114 50 -144 34 -64 36 -87 9 -96 -16 -5 -20 -15 -20 -52
l0 -46 23 21 c43 41 57 25 57 -65 0 -30 -9 -91 -21 -136 -22 -87 -34 -115 -25
-57 3 19 8 63 11 98 6 61 5 63 -14 53 -33 -18 -52 -12 -64 18 -6 16 -22 36
-36 43 -36 18 -41 27 -41 80 0 26 -7 67 -15 91 -13 40 -13 48 1 83 12 30 15
58 11 119 -7 102 -35 227 -50 222 -19 -6 -20 -111 -2 -146 19 -38 19 -78 -1
-160 -8 -36 -17 -77 -20 -90 -10 -49 -28 -2 -29 79 -1 91 -15 118 -41 82 -18
-26 -30 -28 -38 -6 -4 10 3 23 19 35 26 21 45 74 45 126 0 43 -16 50 -34 16
-14 -27 -15 -27 -16 -5 0 12 -12 51 -26 85 -22 52 -25 71 -20 120 4 37 2 56
-4 52 -6 -3 -10 4 -10 16 0 21 1 21 19 5 11 -10 32 -42 48 -72z m-92 25 c4 -5
-1 -27 -11 -47 -10 -22 -18 -62 -19 -97 0 -33 -4 -59 -8 -57 -4 1 -11 2 -17 2
-15 0 -70 116 -70 149 0 45 15 45 35 0 10 -22 22 -42 26 -45 4 -2 16 20 25 51
17 54 27 65 39 44z m645 -237 c0 -13 -30 -52 -40 -52 -10 0 -3 28 13 48 11 13
27 16 27 4z m-6791 -273 c-17 -63 -37 -121 -45 -130 -9 -10 -14 -41 -15 -85 0
-38 -7 -87 -15 -109 l-13 -40 3 73 c2 39 1 72 -2 72 -3 0 -16 -10 -30 -22
l-24 -23 8 30 c11 48 51 150 107 276 63 141 73 125 26 -42z m-879 54 c0 -18
-4 -33 -9 -33 -11 0 -31 54 -31 83 0 19 1 20 20 2 12 -11 20 -31 20 -52z
m7870 -20 c0 -36 -79 -168 -92 -155 -13 13 10 83 46 140 30 48 46 53 46 15z
m-7896 -77 c32 -13 33 -16 40 -87 4 -41 11 -132 15 -204 6 -97 14 -144 30
-184 12 -30 31 -89 41 -130 11 -42 24 -96 31 -121 6 -25 43 -112 81 -195 38
-82 74 -164 79 -182 7 -22 22 -39 49 -54 43 -24 53 -56 25 -79 -13 -10 -19
-10 -33 4 -10 9 -33 16 -50 16 -31 0 -44 14 -20 22 24 8 13 76 -20 120 -43 58
-166 301 -185 366 -9 29 -19 80 -23 115 -4 34 -12 65 -17 69 -6 3 -14 39 -18
80 -5 46 -14 77 -24 84 -8 6 -15 25 -15 41 0 16 -7 52 -15 79 -14 46 -22 254
-10 254 3 0 21 -6 39 -14z m215 -118 c1 -5 -3 -8 -9 -8 -5 0 -10 12 -9 28 0
24 1 25 9 7 5 -11 9 -23 9 -27z m7550 28 c12 -14 5 -46 -9 -46 -11 0 -40 47
-33 54 11 10 30 7 42 -8z m-38 -59 c-16 -16 -40 0 -34 23 5 20 6 20 25 4 12
-11 15 -21 9 -27z m-7487 -128 c15 -79 2 -125 -29 -99 -18 15 -19 69 -3 105
15 33 24 32 32 -6z m7536 9 c0 -7 -9 -24 -20 -38 -16 -20 -20 -22 -20 -7 0 20
21 57 32 57 5 0 8 -6 8 -12z m51 -16 c-11 -20 -61 -58 -61 -45 0 10 63 74 68
69 2 -2 -1 -13 -7 -24z m-7074 -29 c-3 -10 -5 -4 -5 12 0 17 2 24 5 18 2 -7 2
-21 0 -30z m6507 -82 c7 -60 6 -64 -9 -51 -28 23 -37 59 -24 97 15 46 25 32
33 -46z m-6004 18 c0 -50 -107 -208 -131 -193 -27 16 16 110 84 182 36 37 47
40 47 11z m-510 -98 c0 -34 -24 -60 -34 -36 -3 8 -3 22 -1 30 3 8 7 22 10 31
8 24 25 6 25 -25z m6950 2 c-1 -33 -125 -231 -137 -219 -6 6 56 155 82 196 26
41 55 53 55 23z m-233 -80 c-4 -17 -4 -17 -12 0 -4 9 -4 25 0 35 8 16 8 16 12
0 3 -10 3 -26 0 -35z m-6597 27 c12 -8 9 -10 -13 -10 -16 0 -26 4 -22 10 8 12
16 12 35 0z m-115 -49 c3 -11 24 -26 45 -35 22 -9 40 -20 40 -26 0 -11 -67
-46 -74 -39 -11 11 -44 108 -39 113 11 11 22 6 28 -13z m6411 -59 c-15 -15
-16 -15 -16 2 0 9 6 27 12 39 l13 22 3 -24 c2 -13 -3 -31 -12 -39z m-6246 22
c0 -14 -4 -23 -10 -19 -5 3 -10 15 -10 26 0 10 5 19 10 19 6 0 10 -12 10 -26z
m160 -30 c0 -32 -26 -94 -39 -94 -15 0 -14 17 4 78 16 53 35 62 35 16z m-446
-153 c42 -128 57 -226 35 -219 -8 2 -21 20 -30 38 -15 32 -17 33 -23 12 -4
-12 -12 -22 -18 -22 -7 0 -8 27 -3 81 5 58 4 80 -3 75 -19 -12 -32 -78 -32
-163 0 -67 -3 -84 -17 -92 -15 -8 -16 -12 -4 -34 11 -20 11 -29 -2 -53 -8 -16
-22 -53 -31 -82 -10 -29 -26 -57 -36 -62 -31 -17 -35 -49 -9 -76 12 -13 28
-24 35 -24 6 0 18 -7 25 -16 11 -14 10 -18 -6 -30 -15 -11 -16 -17 -7 -26 28
-28 -6 -113 -37 -94 -14 9 -31 72 -31 114 0 20 -4 31 -10 27 -28 -17 1 -131
47 -185 20 -22 34 -43 32 -45 -2 -2 -17 -5 -33 -7 -25 -3 -32 3 -49 37 -32 59
-28 221 7 375 14 63 32 131 40 150 8 19 22 69 31 110 18 82 86 320 91 320 2 0
19 -49 38 -109z m6649 -17 c9 -9 -16 -44 -30 -44 -16 0 -17 22 -1 38 13 13 22
15 31 6z m-373 -89 c-7 -8 -17 -15 -22 -15 -6 0 -5 7 2 15 7 8 17 15 22 15 6
0 5 -7 -2 -15z m-6039 -128 c-26 -26 -28 -7 -4 30 15 23 18 24 21 9 2 -10 -5
-28 -17 -39z m-196 -37 c3 -10 -1 -40 -9 -65 -9 -25 -16 -58 -16 -73 0 -85
-25 -127 -49 -85 -5 10 -13 15 -16 11 -14 -14 -7 -57 14 -84 24 -31 26 -53 7
-79 -13 -18 -14 -17 -30 13 -29 57 -18 140 37 259 5 12 7 39 4 59 -4 22 -2 43
5 51 16 19 46 16 53 -7z m6017 -62 c-7 -7 -12 -24 -12 -38 0 -20 -11 -32 -53
-57 -59 -35 -177 -165 -177 -194 0 -14 142 56 177 86 20 17 37 44 41 62 6 26
10 30 22 23 24 -15 -15 -76 -68 -107 -31 -18 -40 -29 -33 -36 19 -19 11 -87
-10 -87 -5 0 -9 6 -9 13 0 7 -7 22 -15 33 -15 19 -16 18 -39 -8 -29 -32 -148
-82 -176 -73 -15 5 -23 0 -30 -17 -6 -13 -32 -38 -58 -55 -26 -18 -61 -44 -77
-57 -17 -14 -56 -37 -88 -50 -46 -21 -57 -23 -57 -11 0 24 -19 17 -26 -9 -9
-36 1 -44 48 -39 52 6 90 25 209 103 50 33 96 60 102 60 7 0 -27 -39 -73 -86
l-85 -86 63 31 c35 18 116 65 180 105 64 40 131 81 149 90 35 17 73 21 73 7 0
-20 -118 -114 -228 -182 -162 -100 -346 -228 -412 -286 -31 -26 -102 -88 -160
-138 -57 -49 -138 -122 -180 -161 -67 -62 -86 -74 -149 -93 -71 -22 -73 -23
-67 -49 4 -15 7 -42 6 -60 l-1 -32 50 27 c27 15 52 25 56 21 11 -11 -5 -82
-25 -116 -14 -22 -27 -32 -44 -32 -39 0 -86 -46 -86 -84 0 -38 -7 -48 -135
-201 -55 -66 -118 -145 -139 -175 -45 -63 -126 -150 -140 -150 -5 0 -1 9 9 20
9 10 23 47 30 82 10 46 20 67 37 78 49 32 130 116 163 170 42 69 77 150 66
150 -11 0 -58 -46 -93 -91 l-27 -34 6 55 c6 59 44 179 68 216 27 41 16 39 -31
-6 -25 -25 -54 -62 -65 -82 -29 -57 -82 -78 -92 -36 -3 11 -1 31 6 43 28 51
126 164 185 214 36 30 92 88 126 130 113 140 345 373 399 402 38 21 -19 -61
-133 -189 -61 -68 -110 -126 -110 -129 0 -3 37 29 83 71 105 98 259 237 333
302 78 68 55 78 -55 23 -44 -21 -95 -42 -113 -45 -59 -11 -113 -51 -219 -163
-111 -119 -127 -127 -173 -90 l-27 21 44 38 c24 21 63 64 87 95 62 80 178 169
305 232 61 31 122 64 137 74 14 11 41 19 60 19 28 0 42 9 85 55 35 36 60 55
76 55 16 0 74 48 197 166 184 175 311 286 319 278 3 -2 -1 -10 -7 -16z m208
-8 c0 -18 -62 -80 -81 -80 -29 0 -23 14 21 54 40 36 60 45 60 26z m190 -94 c0
-8 -4 -18 -10 -21 -5 -3 -10 3 -10 14 0 12 5 21 10 21 6 0 10 -6 10 -14z m-46
-63 c-9 -36 -20 -49 -57 -68 -38 -19 -47 -19 -47 0 0 9 10 15 26 15 21 0 25 4
22 24 -3 28 18 56 43 56 16 0 18 -5 13 -27z m-144 -170 c-1 -21 -111 -120
-202 -182 -74 -50 -62 -10 20 67 96 90 183 145 182 115z m80 -60 c0 -17 -106
-90 -116 -80 -8 7 85 87 101 87 8 0 15 -3 15 -7z m1293 -56 c1 -5 -26 -24 -60
-44 -56 -31 -64 -33 -70 -18 -3 10 -2 25 4 34 19 30 119 52 126 28z m-7381
-68 c68 -71 84 -98 51 -84 -58 24 -73 28 -79 23 -12 -13 37 -67 120 -132 82
-64 116 -110 116 -155 0 -34 -27 -25 -83 27 -45 43 -135 112 -175 136 -8 5 -1
-11 13 -35 25 -38 26 -44 11 -54 -9 -7 -16 -19 -16 -28 0 -19 36 -41 55 -33
20 7 65 -64 65 -105 l1 -34 34 40 c30 35 35 37 35 18 0 -32 10 -53 27 -53 10
0 12 6 8 20 -6 19 -3 20 22 14 15 -4 61 -26 100 -50 81 -49 100 -53 105 -23 3
17 21 7 143 -80 77 -54 179 -135 227 -179 47 -44 96 -83 109 -87 12 -4 36 -22
54 -39 17 -18 54 -40 81 -50 68 -25 100 -46 85 -56 -9 -5 -5 -16 14 -38 30
-36 15 -43 -25 -12 -41 32 -60 26 -60 -17 0 -21 -7 -46 -14 -56 -13 -16 -14
-16 -20 7 -15 62 -111 133 -163 120 -22 -6 -25 -4 -20 10 4 11 1 19 -11 23
-50 16 -205 97 -243 126 -38 29 -48 32 -75 24 -43 -12 -99 14 -196 91 -42 34
-105 74 -140 90 -76 35 -132 82 -159 133 -24 48 -24 47 6 41 40 -7 31 28 -19
77 -63 62 -92 134 -112 276 -19 141 -13 175 33 175 22 0 43 -16 95 -71z m6903
1 c-3 -5 -24 -10 -46 -10 -24 0 -38 4 -34 10 3 6 24 10 46 10 24 0 38 -4 34
-10z m178 -15 c20 -8 50 -15 67 -15 16 0 30 -3 30 -7 0 -12 -53 -63 -66 -63
-7 0 -38 -24 -70 -52 -31 -29 -52 -44 -46 -32 6 11 18 26 26 33 30 25 59 82
48 93 -7 7 -17 4 -33 -11 -17 -16 -26 -18 -36 -10 -18 15 -16 44 3 63 19 20
32 20 77 1z m378 -2 c16 -10 29 -22 29 -28 0 -13 43 -54 83 -78 34 -22 34 -31
1 -45 -33 -16 -50 -58 -64 -162 -13 -92 -18 -106 -55 -146 -14 -15 -34 -58
-46 -97 -21 -70 -54 -117 -84 -117 -8 0 -15 -4 -15 -9 0 -6 -18 -31 -40 -56
-64 -73 -67 -84 -30 -97 37 -12 29 -27 -21 -37 -27 -5 -35 -12 -40 -39 -8 -40
-26 -62 -50 -62 -11 0 -19 -6 -19 -12 0 -7 -29 -28 -64 -46 -35 -18 -72 -39
-82 -47 -18 -14 -17 -15 14 -27 40 -16 41 -28 1 -28 -44 0 -65 -13 -149 -95
-41 -39 -95 -84 -120 -98 -105 -60 -204 -203 -168 -245 33 -38 32 -43 -10 -36
-32 5 -44 2 -61 -15 -12 -12 -21 -27 -21 -35 0 -8 -25 -61 -57 -118 -31 -56
-67 -123 -80 -147 -36 -68 -50 -80 -138 -106 -45 -14 -100 -34 -123 -45 -22
-11 -46 -20 -51 -20 -6 0 -41 -23 -78 -51 -78 -59 -156 -99 -195 -99 -17 0
-29 -7 -33 -19 -6 -20 -116 -141 -128 -141 -16 0 -5 23 19 42 14 11 24 22 22
23 -9 9 -115 -36 -127 -54 -12 -19 -11 -21 13 -21 14 0 26 -4 26 -10 0 -5 -14
-10 -31 -10 -17 0 -37 -7 -45 -15 -9 -8 -27 -18 -42 -21 -80 -17 -87 -38 -22
-66 51 -21 52 -45 5 -87 -42 -37 -45 -37 -45 -11 0 12 7 20 17 20 14 0 14 2
-3 21 -10 12 -32 28 -48 36 -28 15 -29 15 -21 -9 4 -12 9 -36 12 -53 6 -29 6
-29 -61 24 -37 29 -70 51 -72 48 -11 -10 19 -56 70 -110 31 -32 56 -64 56 -71
0 -43 -71 -43 -117 0 -14 13 -29 24 -34 24 -4 0 -30 32 -58 70 -50 68 -70 87
-57 54 4 -11 1 -14 -11 -12 -23 4 -28 32 -14 77 6 20 12 55 14 79 3 23 12 51
21 61 9 9 16 23 16 29 0 7 5 12 10 12 6 0 10 11 10 24 0 40 41 89 97 116 29
14 51 29 50 34 -2 5 -27 15 -57 23 -68 17 -74 23 -24 23 52 0 132 39 190 92
65 59 176 210 164 222 -13 13 5 43 65 106 30 30 64 73 77 96 83 147 106 165
253 204 102 27 171 65 154 86 -19 23 -85 16 -159 -16 -67 -29 -110 -38 -110
-22 0 20 72 74 145 109 64 30 94 38 150 41 80 4 125 -9 125 -36 0 -10 13 -39
30 -65 32 -52 31 -57 -7 -27 -34 26 -39 25 -52 -10 -5 -17 -18 -33 -28 -36
-73 -23 -88 -57 -23 -53 21 2 42 1 45 -3 8 -8 -61 -64 -103 -84 -37 -17 -56
-56 -47 -92 5 -22 10 -24 42 -19 37 6 73 32 73 52 0 7 21 32 48 55 43 40 93
101 142 175 24 36 25 45 4 45 -32 0 -5 45 80 133 49 51 96 111 111 142 14 30
35 57 45 60 11 4 22 18 25 33 4 15 12 41 19 57 47 107 78 201 78 233 0 26 8
48 29 74 16 20 29 40 29 45 0 4 14 28 30 53 16 25 30 53 30 62 0 10 11 42 24
71 20 45 31 58 70 77 26 12 54 19 62 16 15 -6 15 -8 0 -30 -15 -23 -13 -23 72
12 48 19 105 38 126 41 37 6 40 9 56 56 11 34 20 49 30 47 47 -11 50 -11 50
11 0 35 37 87 73 102 43 19 73 18 108 -2z m-1591 -34 c0 -29 -196 -174 -250
-185 -50 -10 -55 -18 -55 -85 0 -55 -5 -71 -33 -115 -20 -32 -51 -63 -82 -82
-52 -33 -57 -41 -39 -73 7 -14 16 -18 30 -14 32 10 22 -3 -23 -29 -36 -21 -54
-45 -112 -148 -129 -231 -169 -289 -271 -396 -180 -188 -376 -341 -650 -505
-174 -104 -362 -204 -370 -195 -2 2 29 29 70 61 62 47 79 67 106 124 85 176
230 354 534 659 226 227 255 253 495 432 237 176 331 255 319 266 -3 3 -45
-22 -94 -54 -103 -69 -120 -73 -110 -31 5 24 2 32 -16 41 -19 11 -20 14 -6 27
12 13 21 13 48 4 17 -6 36 -11 41 -11 5 0 38 29 73 65 50 51 70 65 93 65 17 0
43 10 59 24 43 36 227 165 236 166 4 0 7 -5 7 -11z m815 -9 c17 -7 15 -9 -12
-9 -18 -1 -33 4 -33 9 0 12 17 12 45 0z m210 0 c14 -6 0 -9 -45 -9 -45 0 -59
3 -45 9 11 5 31 9 45 9 14 0 34 -4 45 -9z m305 -46 c-18 -21 -24 -10 -9 18 8
14 14 18 17 10 2 -7 -2 -19 -8 -28z m-7520 -20 c0 -21 -4 -33 -10 -29 -17 10
-11 65 7 65 2 0 3 -16 3 -36z m-66 -39 c-3 -19 -10 -35 -15 -35 -10 0 -12 44
-2 79 10 37 25 -1 17 -44z m7210 15 c8 0 25 -9 39 -21 25 -19 26 -22 11 -44
-24 -36 -45 -40 -42 -7 3 24 -1 27 -30 30 -18 2 -36 10 -39 19 -7 17 16 35 35
28 8 -3 19 -5 26 -5z m-6568 -102 l19 -21 -27 18 c-29 18 -34 25 -20 25 5 0
17 -10 28 -22z m6483 -9 c55 15 67 5 47 -40 -22 -51 -167 -222 -203 -240 -39
-20 -80 -50 -198 -148 -49 -40 -107 -82 -128 -91 -111 -50 -423 -374 -692
-718 -33 -42 -94 -113 -136 -157 -68 -72 -78 -89 -98 -155 -13 -41 -28 -81
-34 -88 -6 -8 -40 -29 -76 -47 -40 -20 -110 -71 -174 -129 -79 -70 -115 -96
-135 -96 -15 -1 -38 -7 -52 -15 -28 -16 -66 -19 -74 -7 -3 5 -8 47 -12 93 -6
68 -11 87 -31 106 -20 21 -21 24 -5 29 90 29 122 62 122 127 0 40 -27 68 -61
65 -16 -2 -24 2 -24 12 0 17 55 19 113 5 29 -7 36 -4 75 37 23 25 59 66 80 91
21 26 45 47 53 47 10 0 13 7 8 24 -8 32 10 62 41 70 14 4 25 10 25 14 0 5 30
40 68 78 150 155 192 203 192 217 0 16 93 107 110 107 5 0 10 13 10 28 0 29
20 54 52 65 11 4 15 13 11 26 -3 12 3 33 13 48 11 16 29 51 40 78 22 50 45 69
97 80 31 6 36 23 10 31 -58 18 -57 20 36 58 95 39 113 53 90 67 -11 6 -10 11
2 26 9 10 29 42 44 71 27 50 30 52 69 52 23 0 76 12 120 25 54 18 89 23 113
19 25 -5 33 -3 31 6 -4 19 72 37 82 20 6 -9 13 -9 29 -1 11 7 21 16 21 21 0
13 75 46 123 55 40 8 67 28 67 50 0 11 11 9 47 -7 42 -18 53 -20 92 -9z
m-6337 -71 c35 -23 110 -80 167 -127 57 -47 108 -85 112 -84 12 4 41 -44 37
-61 -2 -10 -21 -1 -68 35 -36 27 -92 63 -125 79 -75 36 -160 113 -180 163 -8
20 -13 37 -11 37 3 0 33 -19 68 -42z m5998 13 c0 -12 -26 -21 -58 -20 l-27 1
30 13 c35 16 55 19 55 6z m-290 -20 c-25 -15 -130 -40 -130 -31 0 13 72 39
110 39 25 0 31 -2 20 -8z m-790 -83 c-12 -39 -53 -99 -80 -116 -18 -11 -20
-10 -20 12 0 13 7 29 15 36 23 19 18 33 -10 28 -28 -6 -42 6 -23 19 7 4 37 18
68 30 30 11 56 21 57 22 1 1 -2 -13 -7 -31z m-5030 2 c31 -31 24 -44 -9 -18
-17 13 -30 26 -30 31 -1 14 19 7 39 -13z m4854 -31 c18 -14 26 -30 26 -51 0
-30 -28 -88 -42 -88 -9 0 0 45 14 73 6 12 5 17 -6 17 -7 0 -16 7 -20 15 -3 8
-12 15 -21 15 -18 0 -19 12 -3 28 16 16 21 15 52 -9z m-54 -64 c0 -9 -9 -33
-20 -55 -11 -22 -21 -48 -23 -59 -3 -20 -74 -100 -89 -101 -4 0 -8 14 -10 32
-3 32 -3 32 -38 -27 -21 -37 -47 -66 -66 -75 -17 -9 -43 -26 -59 -38 -38 -30
-52 -16 -36 37 12 42 104 135 158 160 84 39 80 35 107 104 13 31 20 37 45 37
21 0 31 -5 31 -15z m-4325 -45 c28 -20 87 -55 131 -78 88 -44 241 -160 259
-195 5 -12 25 -29 42 -37 39 -18 42 -30 8 -30 -56 0 -135 61 -104 81 10 6 9
12 -5 28 -22 24 -56 28 -56 6 0 -8 -5 -24 -12 -34 -10 -17 -15 -11 -47 52 -27
53 -49 81 -86 109 -27 21 -54 38 -58 38 -5 0 10 -22 32 -48 49 -58 54 -87 14
-77 -65 15 -105 55 -117 115 -3 14 -21 44 -41 67 -57 67 -48 67 40 3z m3755
-23 c0 -7 -59 -68 -130 -136 -72 -67 -142 -143 -156 -167 -22 -37 -66 -74 -89
-74 -8 0 33 78 69 130 17 25 31 50 32 55 3 27 18 44 44 50 35 8 54 29 46 51
-4 11 -2 15 8 11 9 -4 31 13 58 43 36 40 49 48 81 49 24 1 37 -3 37 -12z
m3023 -19 c6 -8 7 -24 3 -34 -7 -19 -8 -19 -22 0 -17 24 -19 59 -2 54 6 -2 16
-11 21 -20z m-916 -15 c-3 -3 -11 -2 -17 2 -9 6 -9 10 1 16 14 8 27 -7 16 -18z
m-6225 -221 c117 -60 282 -150 366 -200 85 -51 158 -92 163 -92 21 0 74 -34
104 -66 18 -19 39 -34 46 -34 15 0 138 -52 206 -88 50 -26 69 -54 54 -80 -9
-14 -10 -13 -11 12 0 25 -3 28 -25 23 -19 -3 -29 1 -36 15 -9 17 -17 19 -55
13 -42 -6 -47 -4 -78 29 -35 39 -50 39 -35 -1 12 -32 12 -33 -6 -33 -8 0 -62
40 -120 89 -123 102 -181 137 -189 115 -14 -36 -103 11 -199 104 -32 32 -55
48 -51 37 7 -17 4 -17 -19 5 -14 14 -45 30 -69 36 -36 9 -43 14 -41 32 2 16
-3 22 -16 22 -30 0 -135 57 -179 98 -39 36 -55 72 -32 72 5 0 105 -49 222
-108z m979 -32 c10 0 19 -6 19 -14 0 -20 -60 -26 -92 -10 -24 13 -78 72 -78
87 0 3 30 -10 66 -29 36 -19 74 -34 85 -34z m-2569 49 c126 -13 158 -22 189
-55 l24 -26 -70 6 c-38 4 -97 9 -130 11 -33 2 -75 11 -93 20 -24 12 -51 16
-99 13 -81 -4 -97 15 -26 30 66 13 87 14 205 1z m324 -38 c17 -10 38 -35 48
-54 9 -20 21 -39 26 -42 15 -10 12 -35 -5 -35 -22 0 -69 48 -99 103 -30 52
-22 59 30 28z m-597 -5 c9 -11 10 -20 1 -35 -12 -24 -23 -26 -51 -11 -24 13
-25 36 -1 49 24 14 38 13 51 -3z m852 -16 c30 -12 68 -31 82 -43 24 -19 26
-26 18 -52 l-9 -30 -1 39 -1 38 -26 -17 c-17 -11 -29 -13 -38 -6 -6 5 -39 14
-73 20 -54 8 -123 34 -123 45 0 3 -3 12 -7 22 -6 16 0 17 58 11 35 -3 89 -15
120 -27z m239 -11 c15 -26 9 -63 -10 -66 -8 -2 -26 6 -39 17 -21 18 -22 24
-13 45 14 30 47 33 62 4z m5140 17 c0 -2 -8 -10 -17 -17 -16 -13 -17 -12 -4 4
13 16 21 21 21 13z m-5005 -33 c11 -6 38 -13 60 -16 69 -9 155 -47 167 -73 6
-13 8 -27 5 -30 -12 -12 -37 5 -37 25 0 25 -17 36 -34 22 -10 -8 -17 -7 -26 4
-17 21 -30 19 -30 -4 0 -25 -41 -16 -47 11 -6 19 -23 25 -23 7 0 -19 -49 -1
-91 33 -22 17 -39 34 -39 38 0 9 69 -3 95 -17z m1533 -27 c20 -13 46 -34 57
-46 11 -12 63 -55 116 -95 91 -70 135 -116 122 -129 -3 -3 -27 9 -52 28 -25
18 -74 49 -108 70 -34 20 -89 57 -122 81 -55 40 -61 49 -61 80 0 19 2 35 5 35
3 0 22 -11 43 -24z m5052 14 c0 -15 -36 -30 -71 -30 -31 0 -32 0 -14 20 19 21
85 29 85 10z m-6063 -65 c28 -8 56 -21 62 -29 9 -11 4 -15 -28 -20 -22 -3 -41
-13 -45 -22 -5 -12 -13 -14 -33 -9 -68 17 -110 78 -60 88 41 8 53 7 104 -8z
m898 -46 c8 -15 15 -36 15 -46 0 -12 19 -27 54 -44 39 -19 53 -22 49 -12 -4
10 7 7 34 -10 54 -34 198 -107 211 -107 6 0 32 -25 59 -55 26 -30 65 -67 86
-81 23 -17 37 -35 37 -48 0 -11 14 -32 30 -46 31 -25 54 -87 41 -108 -9 -15
-45 16 -65 54 -28 57 -69 96 -130 124 -38 17 -80 48 -111 80 -27 28 -63 58
-79 67 -21 11 -25 17 -16 23 16 10 6 40 -14 40 -8 0 -22 -10 -30 -22 l-16 -22
-15 21 c-9 13 -34 28 -56 34 -48 15 -84 55 -99 109 -6 22 -15 42 -20 45 -6 3
-10 15 -10 25 0 27 27 15 45 -21z m2935 -8 c0 -6 -5 -13 -10 -16 -6 -3 -33
-42 -61 -86 -28 -43 -57 -79 -63 -79 -7 0 -20 8 -29 18 -15 16 -15 20 4 52 32
54 60 81 104 101 46 21 55 23 55 10z m2133 -2 c-8 -8 -19 -8 -40 -1 -28 10
-28 10 12 11 28 1 36 -2 28 -10z m-4596 -21 c11 -9 14 -24 10 -56 -6 -57 -14
-63 -40 -29 -12 16 -35 42 -51 59 -25 24 -27 31 -15 39 17 12 76 4 96 -13z
m-2373 -54 c4 -14 1 -28 -9 -37 -8 -9 -15 -18 -15 -20 0 -16 191 -24 379 -16
80 3 95 6 99 21 5 19 22 23 38 10 9 -8 148 -31 315 -52 47 -6 111 -19 142 -30
31 -11 62 -20 69 -20 19 0 88 -38 117 -64 20 -17 23 -18 18 -3 -9 25 3 21 51
-14 32 -23 42 -27 42 -15 0 9 6 16 13 16 26 0 155 -99 203 -156 27 -31 68 -78
92 -104 23 -26 42 -53 42 -60 0 -20 31 -50 52 -50 25 0 39 -40 45 -130 3 -51
11 -83 23 -101 24 -34 36 -79 21 -79 -13 0 -14 -24 -2 -48 5 -9 15 -39 22 -65
13 -54 43 -83 95 -93 l34 -6 -17 -30 c-15 -25 -16 -30 -3 -38 13 -8 13 -9 0
-14 -8 -2 -40 -12 -70 -21 -30 -10 -80 -28 -111 -41 -35 -15 -76 -24 -109 -24
-51 0 -54 1 -129 73 -145 139 -308 257 -354 257 -12 0 -39 -17 -61 -37 -27
-26 -34 -30 -23 -13 34 50 41 71 31 88 -6 9 -54 39 -107 66 -65 32 -97 54 -97
65 0 35 -94 101 -145 101 -21 0 -25 -5 -25 -29 0 -38 -13 -45 -48 -27 -16 8
-52 18 -80 22 -42 5 -51 10 -54 28 -2 15 -11 22 -33 23 -51 5 -139 25 -165 38
-17 9 -39 11 -67 6 -50 -10 -73 2 -73 34 0 28 -6 30 -46 15 -33 -13 -37 -10
-25 24 10 24 8 26 -13 26 -15 0 -36 13 -55 35 l-31 35 -21 -42 c-18 -35 -23
-39 -31 -24 -5 9 -7 35 -3 57 4 21 3 39 -2 39 -4 0 -22 -17 -40 -37 l-32 -38
-1 27 c0 15 4 38 10 52 5 14 6 35 2 46 -7 20 -10 19 -42 -16 -30 -34 -34 -36
-41 -18 -4 10 -8 31 -8 46 -1 15 -9 34 -18 43 -16 16 -17 16 -24 -2 -4 -11
-13 -54 -20 -97 -9 -52 -16 -72 -21 -61 -11 18 -29 20 -24 3 3 -7 7 -25 10
-40 7 -32 36 -38 36 -9 0 11 5 23 10 26 6 3 10 -4 10 -18 0 -33 70 -137 92
-137 11 0 20 -10 24 -27 12 -50 67 -125 113 -154 45 -29 81 -37 81 -19 0 20
40 9 73 -20 27 -24 44 -30 79 -30 24 0 49 -5 56 -12 9 -9 12 -9 12 1 0 8 10
-1 23 -20 12 -19 35 -40 51 -47 24 -12 33 -11 77 7 51 23 64 21 88 -12 10 -14
22 -18 50 -14 25 3 67 -7 136 -31 98 -34 102 -36 182 -121 45 -47 85 -82 89
-78 4 4 -1 16 -11 27 -10 11 -16 23 -13 25 13 13 61 -22 93 -66 28 -39 33 -55
29 -79 -6 -27 -3 -31 28 -44 41 -18 55 -33 60 -66 2 -20 13 -28 58 -43 58 -19
99 -47 69 -47 -8 0 -23 -6 -33 -13 -17 -13 -17 -16 12 -68 58 -101 84 -304 45
-335 -17 -13 -17 -15 6 -34 13 -11 30 -20 38 -20 29 0 8 -44 -37 -75 -31 -22
-46 -40 -48 -59 -3 -23 -7 -26 -25 -20 -12 4 -31 9 -42 9 -101 9 -175 20 -260
41 -162 40 -197 52 -265 92 -77 44 -87 69 -41 102 40 28 40 44 0 38 -25 -4
-33 -1 -37 14 -4 15 -10 18 -33 13 -26 -6 -28 -4 -31 27 -2 24 -8 34 -23 36
-11 2 -29 18 -40 35 -27 43 -59 57 -132 57 -68 0 -84 14 -28 24 19 4 49 13 67
20 29 13 30 14 10 21 -12 3 -29 21 -38 38 -25 48 -45 67 -72 67 -20 0 -23 4
-18 23 9 38 -14 60 -104 103 -19 9 -56 19 -82 22 -37 3 -48 9 -48 22 0 9 -11
27 -25 40 -17 16 -25 34 -25 56 0 45 -9 64 -30 64 -11 0 -20 10 -25 28 -11 47
-53 90 -147 153 -106 71 -257 204 -300 263 -16 22 -36 67 -45 98 -9 33 -22 58
-29 58 -22 0 -36 36 -20 49 8 7 12 19 11 29 -14 69 -17 74 -50 88 -23 9 -35
21 -35 34 0 11 4 20 8 20 9 0 0 73 -13 102 -4 9 -27 33 -51 53 -46 38 -56 67
-28 83 14 8 13 12 -10 35 -33 33 -33 40 4 70 56 47 159 47 182 0 20 -41 40
-48 78 -29 39 19 43 20 35 6 -4 -6 -4 -18 -1 -27 6 -13 9 -13 34 2 15 10 39
29 54 42 l26 25 4 -23 c4 -30 53 -37 97 -15 39 21 59 20 103 -4 l37 -20 42 23
c23 12 54 33 68 47 28 28 35 27 45 -6z m1116 -16 c0 -10 -6 -18 -13 -18 -16 0
-40 47 -31 61 9 14 44 -20 44 -43z m-1360 21 c-36 -24 -70 -39 -70 -30 0 12
49 40 70 40 13 1 13 0 0 -10z m1550 -25 c71 -32 289 -152 405 -222 205 -125
458 -324 591 -463 131 -137 252 -294 268 -346 7 -22 5 -23 -41 -23 -58 0 -144
22 -181 46 -49 32 -216 207 -346 364 -71 85 -195 217 -275 294 -173 164 -251
220 -384 276 -56 23 -113 65 -128 92 -10 18 -8 19 13 13 12 -4 48 -18 78 -31z
m5742 -14 c-33 -31 -72 -40 -72 -17 0 15 56 46 85 46 17 0 15 -4 -13 -29z
m-2170 -16 c-3 -26 -128 -271 -159 -311 -24 -33 -46 -40 -72 -24 -12 8 -12 15
3 48 48 107 146 264 184 293 29 24 48 21 44 -6z m3074 -18 c3 -8 -4 -32 -16
-55 -20 -39 -42 -52 -55 -31 -9 14 13 50 31 50 10 0 13 7 8 25 -5 19 -2 25 10
25 9 0 19 -6 22 -14z m-5365 -133 c74 -71 165 -152 202 -181 49 -39 67 -60 67
-77 0 -29 -18 -42 -26 -21 -3 9 -14 16 -24 16 -10 0 -32 11 -48 25 -17 14 -34
25 -39 25 -6 0 -25 23 -44 50 -19 28 -42 53 -52 56 -9 3 -36 25 -58 49 -23 25
-46 42 -50 39 -5 -3 -9 1 -9 8 0 7 -16 38 -35 68 -69 107 -47 96 116 -57z
m2368 83 c9 -11 8 -18 -5 -30 -9 -9 -36 -57 -60 -107 -45 -92 -64 -105 -64
-43 0 36 23 89 68 156 26 40 42 47 61 24z m-2499 -67 c0 -18 -27 -8 -53 19
-41 43 -32 58 13 22 22 -17 40 -36 40 -41z m2220 39 c0 -6 -18 -33 -41 -60
-27 -33 -35 -48 -25 -48 26 0 18 -19 -34 -82 -41 -50 -50 -67 -50 -99 l0 -40
50 7 c39 5 50 4 50 -7 0 -8 -9 -20 -19 -26 -11 -7 -21 -23 -23 -35 -3 -22 -6
-21 -41 16 -24 26 -37 49 -37 67 0 38 -17 46 -32 15 -10 -24 -38 -37 -38 -18
0 4 25 47 55 97 30 49 55 95 55 102 0 7 19 37 41 68 30 39 49 55 65 55 13 0
24 -5 24 -12z m2315 -8 c-3 -5 -11 -10 -16 -10 -6 0 -7 5 -4 10 3 6 11 10 16
10 6 0 7 -4 4 -10z m-7759 -87 c15 -20 18 -53 6 -53 -9 0 -32 44 -32 60 0 15
11 12 26 -7z m3324 -35 c0 -14 -19 1 -31 25 -12 22 -12 22 10 3 11 -11 21 -23
21 -28z m-3452 -80 l-13 -23 -3 23 c-4 28 21 66 26 39 2 -9 -3 -26 -10 -39z
m2965 -32 c58 -41 75 -58 63 -62 -9 -3 -28 2 -43 12 -39 25 -123 105 -123 117
0 6 4 6 13 -1 6 -5 47 -35 90 -66z m172 40 c24 -19 53 -37 63 -40 10 -4 26
-21 34 -39 9 -17 46 -65 82 -105 36 -40 66 -79 66 -87 0 -21 37 -41 100 -54
67 -14 100 -43 100 -87 0 -37 -22 -50 -61 -35 -37 14 -231 203 -323 315 -46
56 -93 110 -105 120 -22 20 -28 46 -11 46 5 0 30 -15 55 -34z m375 19 c0 -8
-2 -15 -4 -15 -2 0 -6 7 -10 15 -3 8 -1 15 4 15 6 0 10 -7 10 -15z m-449 -44
c4 -3 10 -17 14 -31 l8 -25 -34 26 c-42 33 -51 54 -18 44 13 -4 27 -10 30 -14z
m-2966 -31 c-20 -22 -31 -20 -22 5 4 8 14 15 23 15 16 0 16 -2 -1 -20z m8568
-22 c23 -12 16 -34 -9 -30 -43 6 -104 25 -104 33 0 19 74 17 113 -3z m-5378
-18 c3 -5 1 -10 -4 -10 -6 0 -11 5 -11 10 0 6 2 10 4 10 3 0 8 -4 11 -10z
m228 -95 c-19 -14 -40 -8 -62 18 -9 12 -7 22 10 52 l22 37 24 -47 c23 -45 23
-47 6 -60z m-3376 53 c-3 -8 -6 -5 -6 6 -1 11 2 17 5 13 3 -3 4 -12 1 -19z
m5563 7 c0 -8 -4 -15 -10 -15 -5 0 -10 7 -10 15 0 8 5 15 10 15 6 0 10 -7 10
-15z m886 -14 c-26 -27 -72 -48 -83 -37 -7 7 78 66 95 66 11 0 8 -8 -12 -29z
m1984 9 c10 -7 -5 -10 -50 -9 -45 0 -59 3 -45 9 27 12 77 12 95 0z m-8532 -19
c-7 -11 -16 -17 -22 -14 -5 3 -1 12 9 20 25 18 27 17 13 -6z m3127 -41 c53
-39 221 -217 213 -226 -13 -13 -218 175 -268 247 -26 36 -19 33 55 -21z m217
33 c43 -51 22 -60 -32 -13 l-35 29 26 1 c14 0 33 -8 41 -17z m491 -35 l52 -53
-33 -3 c-36 -4 -82 20 -82 42 0 7 -9 25 -21 40 l-20 26 26 0 c18 0 42 -16 78
-52z m-3720 6 c-4 -10 -9 -12 -15 -6 -12 12 -1 35 12 27 5 -3 6 -13 3 -21z
m2437 -4 c11 -11 20 -32 20 -47 0 -25 -1 -25 -19 -9 -23 21 -45 76 -30 76 5 0
18 -9 29 -20z m-2570 -29 c0 -10 7 -24 15 -31 17 -14 20 -30 5 -30 -13 0 -51
61 -44 72 9 15 24 8 24 -11z m844 -15 c-6 -25 -24 -37 -24 -16 0 13 23 50 28
46 1 -2 0 -15 -4 -30z m2738 -13 c94 -97 117 -153 78 -188 -21 -19 -25 -14
-21 27 1 10 -17 37 -41 60 -55 55 -102 124 -93 137 12 20 31 11 77 -36z m4838
22 c10 -12 9 -15 -7 -15 -10 0 -28 7 -39 15 -18 14 -18 14 7 15 15 0 32 -7 39
-15z m-4059 -44 c-5 -9 -11 -23 -14 -31 -3 -8 -6 5 -6 29 -1 37 1 42 14 31 10
-8 12 -18 6 -29z m281 -16 c4 -50 -7 -59 -22 -19 -14 36 -12 64 4 64 9 0 15
-15 18 -45z m715 14 c15 -15 5 -39 -16 -39 -25 0 -32 10 -20 31 11 22 20 24
36 8z m3078 -50 c11 -10 14 -19 8 -19 -22 0 -82 33 -77 42 8 12 45 0 69 -23z
m-7235 6 c24 -13 24 -14 4 -15 -12 0 -27 7 -34 15 -16 19 -3 19 30 0z m3170
-90 l31 -32 -32 -7 c-18 -3 -38 -11 -46 -17 -15 -13 -17 -51 -3 -65 13 -13 31
-74 22 -74 -9 0 -46 56 -68 102 -17 36 -17 38 0 57 18 20 15 74 -5 86 -5 4 -9
11 -9 16 0 15 75 -30 110 -66z m-4229 55 c10 -6 19 -15 19 -21 0 -5 -13 -3
-30 6 -16 9 -30 18 -30 20 0 8 20 6 41 -5z m4429 -51 c0 -27 -17 -32 -24 -6
-11 40 -8 51 9 37 8 -7 15 -21 15 -31z m3823 34 c-13 -2 -35 -2 -50 0 -16 2
-5 4 22 4 28 0 40 -2 28 -4z m-3523 -21 c0 -11 -8 -27 -19 -36 -17 -16 -19
-16 -24 6 -7 24 8 48 29 48 8 0 14 -8 14 -18z m298 6 c16 -20 18 -50 4 -56 -7
-2 -16 5 -19 16 -3 14 -11 18 -24 15 -19 -5 -27 16 -12 30 11 11 40 8 51 -5z
m1232 -17 c0 -14 -41 -41 -62 -41 -28 0 -21 16 15 34 37 18 47 20 47 7z
m-2316 -81 c7 0 18 11 24 25 9 19 19 25 42 25 34 0 35 -2 18 -33 -21 -39 -69
-77 -98 -77 -26 0 -30 6 -49 62 -28 84 -27 88 15 40 19 -23 41 -42 48 -42z
m-3994 55 c0 -8 -4 -15 -9 -15 -5 0 -14 7 -21 15 -10 13 -9 15 9 15 12 0 21
-6 21 -15z m3806 -11 c4 -14 2 -30 -4 -36 -6 -6 -6 -19 1 -37 11 -30 4 -61
-13 -61 -5 0 -10 6 -10 13 0 24 -46 59 -68 53 -17 -6 -19 -3 -15 14 8 29 61
80 84 80 12 0 21 -9 25 -26z m855 6 c39 -21 12 -80 -37 -80 -16 0 -40 -7 -52
-16 -24 -17 -42 -11 -42 13 0 22 29 53 49 53 9 0 24 9 34 20 19 23 22 24 48
10z m639 -31 c-13 -44 -15 -45 -56 -25 -28 13 -39 14 -50 5 -8 -7 -17 -9 -21
-6 -7 8 95 57 119 57 14 0 15 -5 8 -31z m-4085 -16 c12 -28 12 -33 0 -33 -13
0 -45 47 -45 65 0 19 34 -5 45 -32z m396 11 c6 -8 9 -14 6 -14 -13 0 -57 24
-57 31 0 11 38 -1 51 -17z m3239 -19 c0 -32 -6 -51 -20 -65 -28 -28 -53 -27
-45 3 8 26 54 107 60 107 3 0 5 -20 5 -45z m-4020 25 c0 -5 -5 -10 -11 -10 -5
0 -7 5 -4 10 3 6 8 10 11 10 2 0 4 -4 4 -10z m7410 1 c0 -12 -20 -25 -27 -18
-7 7 6 27 18 27 5 0 9 -4 9 -9z m-4730 -13 c0 -6 -5 -38 -12 -71 -12 -56 -14
-58 -39 -55 l-27 4 24 -31 c25 -33 32 -75 13 -75 -6 0 -24 13 -40 30 -29 28
-29 30 -14 59 8 17 15 39 15 50 0 14 8 21 28 23 22 2 27 8 28 33 1 17 2 33 3
38 2 12 21 8 21 -5z m1861 -41 c-19 -18 -30 -25 -26 -17 13 25 48 60 54 55 3
-3 -10 -20 -28 -38z m2759 -6 c0 -3 -5 -13 -10 -21 -9 -13 -11 -13 -20 0 -5 8
-10 26 -10 39 0 23 1 24 20 6 11 -10 20 -21 20 -24z m-3640 -11 c0 -16 -4 -30
-10 -30 -11 0 -14 43 -3 53 11 12 13 8 13 -23z m-71 -6 c6 -15 9 -29 6 -32 -7
-7 -34 29 -35 46 0 21 16 13 29 -14z m-3084 4 c33 -15 37 -68 4 -68 -16 0 -19
4 -14 20 4 13 1 22 -9 26 -9 3 -16 12 -16 20 0 17 2 17 35 2z m2390 2 c3 -5 1
-10 -4 -10 -6 0 -11 5 -11 10 0 6 2 10 4 10 3 0 8 -4 11 -10z m1801 -17 l39
-17 -40 -7 c-48 -10 -95 -2 -95 15 0 31 38 35 96 9z m-5299 -12 c25 -12 48
-32 58 -50 8 -17 13 -31 11 -31 -3 0 -36 17 -73 37 -49 26 -63 31 -50 17 19
-23 23 -54 7 -54 -22 0 -90 54 -90 70 0 35 72 40 137 11z m916 -31 c-9 -33
-23 -22 -23 18 1 33 2 35 14 19 8 -10 12 -27 9 -37z m2516 21 c7 -5 9 -11 4
-14 -14 -9 -54 4 -47 14 7 11 25 11 43 0z m4329 -44 c2 -12 -3 -17 -17 -17
-12 0 -21 6 -21 13 0 31 32 34 38 4z m-2678 -32 c0 -16 -40 -46 -52 -39 -16
10 -8 41 15 51 25 12 37 8 37 -12z m-2610 5 c0 -5 -13 -10 -30 -10 -16 0 -30
5 -30 10 0 6 14 10 30 10 17 0 30 -4 30 -10z m2345 -15 c0 -13 -8 -21 -22 -23
-24 -3 -28 4 -17 33 9 22 39 14 39 -10z m-384 4 c11 -5 17 -14 14 -20 -8 -12
-72 -12 -80 1 -17 27 28 40 66 19z m180 -50 c-11 -24 -20 -38 -20 -31 -1 18
28 86 34 80 3 -3 -3 -25 -14 -49z m76 35 c9 -23 -13 -40 -32 -24 -12 10 -13
16 -4 26 15 18 28 18 36 -2z m813 -9 c7 -8 10 -21 7 -29 -5 -12 -13 -11 -46 6
-23 11 -41 24 -41 29 0 15 67 10 80 -6z m-1955 -34 c9 -16 -18 -101 -33 -101
-11 0 -13 8 -7 33 4 17 8 42 7 55 0 22 22 31 33 13z m365 -2 c0 -17 -20 -49
-30 -49 -14 0 -12 34 2 48 15 15 28 15 28 1z m-2172 -64 c-7 -8 -38 23 -38 38
0 6 10 2 22 -10 12 -13 19 -25 16 -28z m1732 35 c0 -5 -7 -10 -16 -10 -8 0
-12 5 -9 10 3 6 10 10 16 10 5 0 9 -4 9 -10z m2108 -19 c-7 -12 -19 -21 -27
-21 -10 0 -7 8 9 25 27 29 37 27 18 -4z m-1137 3 c10 -13 10 -17 -2 -25 -17
-10 -53 -12 -62 -2 -9 8 22 43 38 43 7 0 18 -7 26 -16z m85 -30 c-3 -8 -12
-14 -21 -14 -14 0 -13 4 2 33 13 25 18 28 21 14 2 -10 1 -25 -2 -33z m-458 14
c16 -16 15 -53 -1 -67 -19 -15 -27 -4 -27 41 0 39 8 46 28 26z m3196 3 c7 -11
-22 -23 -36 -15 -6 4 -5 10 3 15 18 11 26 11 33 0z m226 -1 c0 -5 -13 -10 -30
-10 -16 0 -30 5 -30 10 0 6 14 10 30 10 17 0 30 -4 30 -10z m-3570 -16 c0 -14
-3 -14 -15 -4 -8 7 -15 14 -15 16 0 2 7 4 15 4 8 0 15 -7 15 -16z m1380 -4 c8
-5 12 -12 9 -15 -8 -8 -39 5 -39 16 0 11 11 11 30 -1z m-81 -46 c-17 -21 -21
-11 -8 22 10 23 13 25 16 11 3 -10 -1 -25 -8 -33z m-1424 26 c4 -6 -5 -10 -20
-10 -15 0 -24 4 -20 10 3 6 12 10 20 10 8 0 17 -4 20 -10z m-158 -40 c17 -6
35 -22 41 -35 10 -23 9 -25 -11 -25 -13 0 -38 15 -57 35 -36 37 -29 44 27 25z
m1473 -26 c0 -69 -51 -85 -103 -32 l-32 31 30 13 c17 7 47 13 68 14 33 0 37
-3 37 -26z m-4743 -18 c-6 -18 -57 -20 -57 -2 0 15 26 25 48 18 7 -2 11 -10 9
-16z m4334 8 c10 -13 10 -17 -2 -25 -20 -13 -117 -11 -125 3 -20 33 100 54
127 22z m-2263 -72 c3 -50 2 -52 -22 -52 -15 0 -26 -4 -26 -10 0 -5 8 -10 18
-10 14 0 15 -2 2 -9 -18 -12 -30 -5 -30 20 0 10 -6 19 -14 19 -23 0 -24 23 -3
55 45 64 71 60 75 -13z m865 30 c9 -8 17 -22 17 -30 0 -11 -9 -7 -30 13 -47
45 -36 59 13 17z m1016 14 c10 -11 7 -17 -11 -30 -26 -19 -40 -10 -32 22 7 25
26 29 43 8z m1771 -10 c0 -16 -27 -29 -41 -20 -13 8 9 34 27 34 8 0 14 -6 14
-14z m1194 5 c8 -12 -13 -27 -47 -35 -37 -9 -50 0 -37 25 11 20 73 28 84 10z
m-3437 -36 c-29 -26 -71 -33 -82 -15 -13 21 17 40 64 40 l46 -1 -28 -24z m543
3 c-1 -26 -26 -65 -37 -55 -7 7 22 77 32 77 3 0 5 -10 5 -22z m1381 -48 c9 -6
35 -75 56 -150 8 -30 15 -98 16 -150 1 -80 -3 -103 -22 -144 -22 -46 -25 -48
-37 -31 -17 23 -18 55 -1 55 6 0 -1 12 -17 26 -17 15 -37 24 -47 21 -14 -4
-19 0 -19 13 0 30 30 41 63 23 16 -8 31 -12 34 -9 3 3 8 25 10 50 7 55 -18
168 -57 265 -30 72 -31 121 -2 65 8 -16 18 -31 23 -34z m-2272 8 c17 -18 29
-33 28 -35 -7 -7 -107 49 -102 58 12 18 45 8 74 -23z m-262 0 c13 -12 23 -32
23 -45 0 -21 -4 -23 -42 -20 -24 1 -43 8 -46 15 -3 11 0 12 18 2 22 -12 22
-11 15 29 -8 46 -1 50 32 19z m323 -25 c0 -13 -7 -10 -30 12 -16 16 -30 30
-30 32 0 2 14 -3 30 -12 17 -9 30 -23 30 -32z m-942 10 c-2 -13 -16 -20 -46
-24 -49 -6 -53 0 -14 23 36 23 64 23 60 1z m2123 -39 c18 -19 18 -22 4 -34
-20 -16 -112 -49 -139 -50 -20 0 -66 36 -66 52 0 4 8 8 18 8 9 0 30 7 45 15
26 13 31 13 58 -7 33 -25 47 -18 31 16 -8 19 -7 27 6 40 16 16 17 16 20 -1 2
-10 13 -27 23 -39z m-2821 -15 c6 -23 9 -44 5 -47 -11 -11 -24 13 -31 57 -9
56 11 48 26 -10z m4255 31 c7 -23 -2 -43 -16 -35 -12 8 -12 55 0 55 5 0 12 -9
16 -20z m991 5 c10 -25 -7 -40 -23 -20 -7 11 -13 22 -13 27 0 14 30 9 36 -7z
m-3502 -28 c15 -24 -3 -35 -20 -13 -8 11 -14 24 -14 29 0 13 22 3 34 -16z
m-674 -26 c8 -30 6 -35 -38 -77 -43 -40 -69 -56 -60 -36 24 52 80 153 84 149
3 -2 9 -19 14 -36z m-745 -97 c-8 -13 -20 -24 -27 -24 -16 0 -1 99 20 130 l17
25 3 -53 c2 -37 -2 -62 -13 -78z m4830 106 c-3 -5 -18 -10 -33 -10 -21 0 -24
2 -12 10 20 13 53 13 45 0z m-1121 -47 c52 -78 71 -188 44 -248 -13 -28 -20
-30 -50 -14 -26 14 -64 97 -50 111 19 19 42 0 42 -33 0 -20 4 -29 13 -27 26 9
18 63 -23 146 -22 46 -38 88 -34 93 11 19 35 8 58 -28z m-482 -5 c33 -19 39
-26 36 -52 -3 -28 -6 -30 -45 -30 -43 0 -43 0 -43 -36 0 -44 -39 -86 -88 -96
-26 -5 -32 -3 -32 11 0 10 10 32 23 49 50 66 43 81 -31 71 -73 -10 -75 -12
-77 -112 -2 -75 -7 -98 -31 -144 -33 -65 -52 -89 -72 -89 -21 0 -10 72 17 106
27 34 18 48 -19 29 -39 -20 -70 -62 -70 -95 0 -15 -11 -58 -25 -94 -31 -83
-31 -97 1 -125 l27 -23 -6 -127 -5 -126 24 30 c14 17 44 60 69 96 41 62 69 87
79 71 2 -4 24 -46 50 -94 l45 -86 -6 -132 -6 -132 21 13 c13 8 30 38 40 69 17
50 21 55 45 52 18 -2 39 7 64 27 21 16 60 41 88 56 48 25 50 27 52 73 6 104
14 130 67 210 46 70 51 82 39 98 -12 17 -15 16 -41 -14 -16 -18 -32 -32 -36
-32 -12 0 31 74 58 99 18 17 26 35 26 58 0 40 23 44 64 12 42 -33 35 -70 -29
-165 -63 -94 -74 -128 -51 -171 13 -27 13 -35 0 -78 -21 -70 -17 -140 12 -220
22 -63 26 -94 35 -300 5 -126 7 -279 4 -340 -6 -111 -48 -318 -69 -344 -6 -8
-13 -41 -16 -75 -4 -51 -8 -61 -22 -58 -12 2 -19 -6 -24 -25 -3 -15 -17 -67
-30 -115 -13 -48 -24 -109 -24 -136 0 -42 -3 -50 -24 -60 -13 -6 -37 -27 -52
-47 -25 -33 -28 -44 -26 -109 1 -39 5 -83 8 -98 8 -41 -4 -34 -22 12 -15 37
-34 54 -34 29 0 -6 -21 -53 -46 -106 -48 -98 -62 -179 -37 -204 8 -8 6 -22
-10 -53 -19 -34 -22 -60 -24 -161 l-3 -120 25 65 c37 98 57 205 49 267 -4 32
-2 53 3 53 17 0 43 -35 49 -69 6 -29 9 -31 22 -18 8 8 16 37 19 63 2 27 9 62
15 77 10 26 12 27 29 11 18 -16 19 -15 19 33 0 42 5 54 30 78 17 16 30 34 30
42 0 7 9 17 20 23 17 9 20 8 20 -10 0 -11 -9 -38 -19 -58 -36 -70 -38 -148 -3
-92 23 37 32 23 26 -36 -7 -56 -7 -56 17 -49 39 12 43 21 30 65 -8 28 -10 74
-5 149 l7 107 -27 21 c-23 18 -25 25 -16 47 15 40 44 33 80 -19 17 -25 32 -45
34 -45 2 0 -9 37 -25 83 -35 100 -35 108 -4 137 27 25 32 49 14 67 -15 15 39
263 58 263 9 0 13 14 13 40 0 43 0 43 24 34 11 -4 16 -19 16 -48 0 -22 7 -66
15 -96 18 -64 21 -183 6 -222 -13 -33 -50 -68 -73 -68 -10 0 -18 2 -18 5 0 3
19 35 41 71 23 36 39 67 36 71 -3 3 -18 -4 -34 -15 -75 -53 -90 -105 -47 -167
26 -39 27 -45 32 -215 4 -172 -14 -423 -40 -525 -5 -22 -11 -71 -13 -110 -2
-46 -13 -100 -33 -155 -16 -47 -40 -114 -52 -150 -12 -36 -27 -74 -33 -85 -6
-11 -29 -56 -52 -100 -28 -56 -50 -86 -75 -101 -68 -44 -101 -77 -137 -141
-20 -36 -50 -78 -68 -94 -30 -27 -45 -62 -60 -131 -3 -15 -11 -32 -18 -38 -6
-6 -23 -19 -35 -30 -13 -10 -21 -23 -18 -29 8 -13 -33 -41 -59 -41 -31 0 -129
-38 -141 -55 -14 -19 -24 -19 -24 0 0 24 -29 30 -45 9 -13 -17 -14 -13 -15 44
0 64 -13 80 -30 39 -17 -39 -50 -185 -59 -258 -8 -56 -6 -80 8 -122 15 -48 19
-52 44 -49 28 3 28 3 12 -22 -9 -14 -32 -37 -52 -52 -30 -23 -34 -24 -30 -8
16 58 16 72 2 84 -8 7 -15 21 -15 32 0 11 -5 28 -10 38 -6 10 -11 30 -12 44
-1 15 -5 26 -8 25 -16 -1 -93 -111 -103 -146 -6 -24 -17 -43 -25 -43 -7 0 -27
-7 -43 -16 -29 -15 -31 -14 -36 6 -4 15 -9 18 -18 10 -20 -17 -27 3 -19 60 8
61 -10 67 -51 18 -23 -27 -26 -38 -21 -73 6 -47 -6 -65 -40 -65 -28 0 -37 25
-25 68 17 57 -15 38 -45 -27 -29 -64 -44 -70 -44 -18 0 41 -18 107 -30 107 -5
0 -12 -5 -15 -10 -4 -6 -22 -17 -40 -25 -23 -9 -46 -32 -70 -69 -40 -62 -68
-86 -105 -86 -14 -1 -36 -7 -50 -15 -44 -25 -53 -20 -45 27 7 37 6 40 -11 33
-36 -14 -48 -10 -54 20 -4 17 -12 40 -18 50 -10 20 -11 20 -18 1 -5 -12 1 -44
15 -83 13 -35 20 -67 16 -71 -11 -11 -87 79 -118 140 -26 51 -31 55 -78 66
-71 17 -87 15 -112 -11 -51 -52 -62 -54 -34 -7 36 62 45 124 22 150 -31 34
-95 24 -95 -14 0 -31 8 -36 36 -26 35 14 38 -5 6 -41 l-28 -31 -35 58 c-20 33
-50 82 -67 109 -20 32 -35 70 -38 100 -6 48 -4 52 40 106 42 51 46 61 46 110
0 30 -5 61 -10 69 -16 23 -50 -23 -50 -69 -1 -34 -2 -35 -15 -17 -8 11 -20 46
-26 78 -9 46 -14 56 -25 47 -23 -19 -34 0 -34 59 0 84 11 91 43 27 28 -57 32
-61 56 -46 12 8 14 36 12 149 l-2 139 31 6 c48 10 76 49 99 140 12 45 29 98
37 117 l16 34 18 -49 c40 -111 51 -142 64 -190 l13 -50 13 30 c7 17 15 60 17
97 5 61 4 68 -20 92 l-25 25 24 68 c13 37 24 79 25 93 1 24 1 24 10 -5 16 -55
21 -219 9 -325 -22 -198 -23 -226 -12 -215 6 6 15 33 19 60 l9 50 13 -57 c8
-32 17 -58 20 -58 4 0 15 15 26 33 24 40 25 152 1 272 -9 44 -16 128 -16 186
0 112 -15 217 -32 234 -8 7 -9 4 -4 -9 7 -19 8 -19 -53 0 -25 8 -31 -11 -38
-123 -3 -51 -8 -91 -11 -89 -2 3 -8 54 -12 113 -8 102 -11 113 -58 208 -82
163 -88 224 -39 360 14 39 37 147 52 240 14 94 33 208 40 255 8 47 14 114 14
149 1 62 0 64 -18 47 -51 -46 -73 42 -30 126 24 48 37 50 71 14 26 -30 27 -30
28 -8 0 32 17 27 36 -10 14 -27 18 -29 26 -15 21 38 48 13 48 -44 0 -34 16
-69 30 -69 6 0 10 20 10 44 0 39 5 47 48 86 71 64 100 73 232 74 125 1 167
-12 219 -68 31 -33 38 -32 73 1 24 23 30 25 38 13 5 -8 10 -23 10 -33 0 -14 6
-18 28 -15 25 3 27 6 26 46 -1 47 -26 89 -63 108 -39 20 -43 29 -22 48 19 18
21 17 47 -3 15 -12 36 -21 48 -21 38 1 -42 60 -81 60 -18 0 -33 4 -33 8 0 15
24 32 47 32 13 0 23 5 23 11 0 11 42 8 98 -7 32 -9 28 16 -8 51 -33 31 -27 55
9 36 28 -16 47 -46 71 -115 16 -49 18 -65 9 -100 -17 -62 -13 -88 20 -145 17
-29 31 -54 31 -57 0 -3 -10 -4 -22 -3 -75 7 -75 -9 1 -49 66 -36 78 -47 83
-81 2 -17 13 -27 38 -35 23 -7 36 -19 41 -36 7 -24 7 -23 8 6 1 23 -10 46 -39
82 -22 28 -46 52 -53 55 -23 8 0 18 27 11 17 -4 26 -13 26 -26 0 -12 17 -40
38 -64 20 -24 50 -59 66 -79 25 -31 33 -35 57 -30 16 4 29 4 29 2 0 -3 -13
-31 -30 -62 -22 -42 -30 -71 -30 -110 0 -36 -5 -57 -16 -66 -19 -16 -34 2 -34
41 0 32 -59 90 -157 154 -40 26 -86 64 -103 85 -23 30 -35 38 -52 33 -19 -5
-20 -2 -14 24 20 82 20 84 -6 84 -14 0 -35 11 -47 24 -31 33 -130 48 -198 31
-32 -7 -33 -6 -33 24 0 20 -5 31 -14 31 -16 0 -26 -21 -26 -55 0 -33 -30 -62
-71 -69 -32 -6 -41 -2 -93 44 -31 27 -63 50 -71 50 -7 0 -20 3 -29 6 -31 12
-15 -12 20 -31 51 -27 70 -59 56 -90 -15 -32 -24 -31 -65 5 -40 34 -53 37 -79
13 -19 -17 -25 -49 -7 -38 15 10 59 -3 59 -18 0 -7 -20 -18 -43 -25 -32 -10
-66 -35 -124 -90 -96 -92 -123 -133 -156 -238 -38 -120 -50 -213 -51 -394 -1
-139 2 -170 16 -197 34 -62 73 -56 148 23 29 30 58 53 64 51 6 -2 19 -19 28
-39 13 -28 15 -43 7 -77 -11 -47 1 -73 30 -69 12 2 17 -7 19 -44 3 -46 13 -60
27 -38 10 16 42 12 49 -6 3 -9 6 -37 7 -62 0 -38 2 -43 9 -24 5 12 14 22 19
22 12 0 17 -19 27 -95 l7 -60 13 33 c18 42 40 41 54 -2 14 -45 16 -154 2 -168
-14 -14 -227 64 -260 95 -20 18 -24 19 -32 7 -16 -25 -11 -73 15 -148 28 -82
31 -122 11 -160 -19 -35 -37 -94 -31 -100 2 -2 10 8 17 24 6 16 21 39 32 52
17 19 26 21 66 16 35 -5 49 -2 59 10 21 25 30 19 37 -21 10 -58 30 -84 58 -77
14 3 47 -5 85 -21 34 -14 66 -23 70 -20 5 3 5 22 1 42 -10 43 -9 46 13 37 26
-10 42 -73 42 -168 0 -99 13 -119 42 -67 10 17 21 31 26 31 4 0 7 9 7 20 0 27
33 90 59 114 12 11 21 25 21 32 0 21 50 74 130 136 76 61 134 136 127 166 -2
10 -10 15 -18 12 -8 -2 -90 -7 -184 -11 -93 -3 -196 -10 -227 -14 -55 -7 -58
-6 -87 23 -35 35 -40 71 -12 96 18 17 19 16 31 -18 15 -46 26 -52 51 -30 11
10 32 18 47 19 27 0 33 10 47 78 7 37 16 34 43 -13 35 -62 59 -52 36 15 -22
64 -11 79 78 105 21 6 33 4 53 -12 29 -22 33 -13 9 21 -15 21 -22 23 -70 18
-38 -4 -56 -2 -64 8 -9 11 -4 16 27 24 48 14 75 14 109 1 25 -10 31 -7 72 32
55 54 61 70 67 176 7 108 16 121 77 103 55 -17 108 -70 108 -108 0 -50 -24
-98 -67 -137 -24 -21 -52 -54 -64 -74 -31 -51 -70 -92 -88 -92 -31 0 -45 -19
-51 -67 -4 -40 -8 -48 -25 -46 -10 1 -37 -9 -60 -22 -22 -13 -55 -26 -72 -30
-29 -6 -46 -24 -25 -26 4 0 20 -2 35 -4 46 -6 142 59 267 181 111 108 117 113
174 123 33 6 62 13 64 16 3 3 0 16 -6 30 -16 34 -15 42 4 49 22 8 44 -11 44
-38 0 -35 -58 -119 -78 -113 -9 2 -23 6 -31 8 -9 3 -18 -8 -24 -28 -7 -24 -16
-33 -31 -33 -15 0 -25 -10 -33 -30 -8 -21 -24 -36 -56 -49 -42 -18 -67 -44
-67 -70 0 -7 23 -11 55 -11 75 0 141 35 231 121 57 56 77 69 102 69 31 0 72
29 72 49 0 6 11 22 25 36 13 15 31 51 40 81 8 30 19 54 23 54 4 0 13 -10 21
-22 21 -33 31 -4 24 71 l-6 63 -68 -69 c-38 -37 -69 -71 -69 -75 0 -11 -53
-88 -58 -83 -2 2 1 18 7 36 6 18 11 52 11 75 0 40 -2 44 -25 44 -34 0 -33 37
2 97 25 43 26 48 15 102 -20 98 -41 163 -81 256 -51 116 -55 136 -41 181 10
28 10 39 1 42 -18 6 -13 24 14 52 33 34 164 419 153 449 -7 20 -5 21 30 15 33
-5 40 -2 59 23 60 82 163 333 163 398 0 45 -21 61 -45 35 -10 -11 -22 -20 -27
-20 -5 0 -34 23 -64 52 -30 28 -58 48 -62 44 -4 -4 -7 -38 -7 -74 -1 -63 -2
-67 -24 -70 -14 -2 -30 -9 -37 -15 -7 -7 -20 -18 -29 -25 -8 -7 -15 -26 -15
-42 0 -23 -5 -30 -20 -30 -19 0 -28 26 -34 96 -3 39 -16 86 -30 103 -8 10 -5
17 10 30 22 18 30 72 14 101 -7 13 -7 20 -1 20 21 0 22 49 1 131 -28 112 -35
216 -22 319 12 91 15 267 5 339 -3 23 -2 104 2 179 8 152 14 164 91 190 82 28
95 36 109 62 20 38 10 42 -38 14 -45 -25 -97 -32 -97 -12 0 25 105 109 198
157 114 59 168 66 234 29z m-4754 0 c21 -21 13 -28 -27 -28 -40 0 -57 11 -46
30 9 14 58 13 73 -2z m4857 -53 c-1 -51 -4 -60 -30 -81 -17 -13 -37 -24 -45
-23 -10 0 -9 3 5 10 25 12 48 70 48 122 1 21 5 36 12 34 5 -2 10 -30 10 -62z
m1441 49 c-3 -9 -6 -20 -6 -25 0 -9 -52 -39 -70 -39 -20 0 -9 29 21 54 35 29
65 35 55 10z m-3140 -5 c10 -17 -33 -56 -47 -42 -8 8 -8 17 0 32 13 23 36 28
47 10z m-1541 -19 c7 -23 -40 -112 -79 -149 -35 -33 -33 -17 7 60 19 35 36 74
39 87 8 27 25 29 33 2z m1270 -26 c19 -19 7 -38 -21 -32 -23 4 -32 48 -10 48
8 0 22 -7 31 -16z m-940 -24 c3 -5 2 -10 -4 -10 -5 0 -13 5 -16 10 -3 6 -2 10
4 10 5 0 13 -4 16 -10z m1085 0 c0 -5 -7 -7 -15 -4 -8 4 -15 8 -15 10 0 2 7 4
15 4 8 0 15 -4 15 -10z m-640 -25 c51 -26 135 -102 184 -168 28 -37 29 -39 16
-92 -12 -50 -15 -53 -33 -43 -11 6 -31 23 -45 39 -13 16 -32 29 -43 29 -18 0
-19 -1 -3 -25 16 -24 15 -25 -6 -25 -32 0 -130 30 -130 40 0 4 25 14 57 21 62
15 85 38 67 67 -6 9 -46 38 -89 64 -91 55 -127 101 -87 111 38 10 65 6 112
-18z m3095 15 c4 -6 1 -27 -5 -46 -14 -40 -30 -31 -30 17 0 36 20 53 35 29z
m-4245 -14 c0 -8 -9 -24 -20 -37 -17 -21 -19 -22 -20 -6 0 23 18 57 30 57 6 0
10 -6 10 -14z m1765 -5 c3 -5 19 -12 36 -16 36 -8 33 -30 -3 -30 -42 -1 -58
-22 -58 -75 0 -59 -7 -80 -28 -80 -12 0 -13 3 -4 12 18 18 14 84 -7 126 -20
41 -18 70 4 52 10 -8 17 -7 27 4 15 18 25 20 33 7z m2613 -21 c-7 -11 -16 -20
-21 -20 -4 0 -3 9 3 20 6 11 15 20 20 20 6 0 5 -9 -2 -20z m-5568 0 c0 -11 -7
-14 -52 -24 -34 -8 -37 7 -5 22 29 14 57 15 57 2z m3976 -26 c29 -4 29 -16 0
-40 -57 -50 -111 -9 -71 52 16 25 17 25 36 8 11 -10 27 -19 35 -20z m-326 -25
c0 -16 -4 -29 -9 -29 -12 0 -21 25 -21 57 0 21 2 24 15 13 8 -7 15 -25 15 -41z
m-3560 31 c12 -8 9 -10 -12 -10 -16 0 -28 5 -28 10 0 13 20 13 40 0z m4840 -9
c0 -4 -16 -5 -36 -3 -21 3 -31 8 -24 12 13 8 60 1 60 -9z m-2759 -31 c29 -23
64 -43 76 -46 12 -3 24 -13 28 -21 13 -34 -4 -30 -122 35 -17 9 -34 25 -37 36
-2 10 -10 16 -17 14 -21 -7 -68 -100 -69 -135 0 -39 -23 -63 -60 -63 -43 0
-44 14 -5 61 20 23 48 63 62 88 15 25 31 52 36 59 17 22 52 13 108 -28z m-423
-64 c20 -19 33 -38 29 -42 -4 -5 -27 11 -50 34 -50 50 -33 57 21 8z m370 7
c-4 -36 -38 -45 -38 -10 0 27 7 37 27 37 10 0 13 -9 11 -27z m1726 18 c3 -5
-4 -21 -16 -36 -18 -23 -22 -25 -30 -11 -17 30 28 76 46 47z m-2537 -16 c4
-14 -54 -105 -67 -105 -13 0 12 51 34 69 23 19 20 34 -4 21 -16 -8 -20 -8 -20
4 0 24 49 34 57 11z m273 1 c0 -8 -11 -28 -25 -44 -33 -39 -32 -44 9 -41 51 5
54 -7 13 -45 -20 -19 -37 -38 -37 -43 0 -20 39 -45 60 -40 14 3 20 1 17 -6 -5
-18 -44 -20 -80 -6 -50 19 -58 34 -42 80 8 22 17 58 19 81 5 42 29 78 53 78 7
0 13 -6 13 -14z m1700 -21 c13 -14 21 -28 18 -31 -7 -7 -50 14 -60 30 -23 34
10 35 42 1z m290 0 c10 -12 7 -17 -14 -26 -34 -16 -57 1 -36 26 16 19 34 19
50 0z m1211 -76 c11 -11 18 -23 16 -26 -8 -7 -67 26 -67 37 0 17 29 11 51 -11z
m364 1 c-3 -5 -16 -10 -28 -10 -18 0 -19 2 -7 10 20 13 43 13 35 0z m55 -13
c0 -16 -56 -84 -64 -76 -9 8 12 71 26 81 19 12 38 10 38 -5z m405 3 c-3 -5
-11 -10 -16 -10 -6 0 -7 5 -4 10 3 6 11 10 16 10 6 0 7 -4 4 -10z m-2874 -46
c-44 -50 -48 -63 -29 -94 16 -26 3 -37 -20 -17 -23 21 -33 22 -26 2 8 -19 -4
-19 -50 0 -19 8 -96 24 -170 35 -75 11 -155 24 -178 30 -24 5 -61 10 -83 10
-36 0 -38 1 -23 16 22 22 103 31 124 13 10 -9 45 -13 98 -14 76 0 81 -1 84
-22 4 -25 18 -31 25 -10 4 10 7 10 18 0 22 -22 48 -14 65 18 15 29 18 31 58
25 37 -6 47 -3 81 24 58 46 73 37 26 -16z m334 27 c6 -11 -42 -51 -61 -51 -9
0 -14 -11 -14 -27 0 -42 -15 -60 -34 -44 -36 30 -9 104 44 124 24 9 58 8 65
-2z m874 -29 c-6 -18 -15 -29 -20 -26 -5 3 -2 19 7 35 20 39 28 33 13 -9z
m-2619 -26 c0 -56 -62 -107 -128 -105 -24 0 -25 1 -7 9 11 5 43 36 70 69 28
33 53 60 58 60 4 1 7 -14 7 -33z m-1160 4 c0 -5 -9 -10 -20 -10 -11 0 -20 5
-20 10 0 6 9 10 20 10 11 0 20 -4 20 -10z m1910 -30 c12 -8 12 -10 -3 -16 -22
-8 -50 3 -42 16 8 12 25 13 45 0z m810 -91 c0 -16 -19 -9 -30 10 -17 33 -11
48 10 22 11 -13 20 -27 20 -32z m-778 -72 c-29 -28 -52 -47 -52 -40 0 15 91
106 98 98 3 -3 -17 -29 -46 -58z m2994 17 c16 -39 18 -54 5 -54 -9 0 -41 71
-41 91 0 19 22 -3 36 -37z m130 22 c3 -8 4 -31 2 -52 l-3 -38 -28 38 c-16 20
-26 44 -23 51 7 19 45 19 52 1z m-3898 -28 c3 -13 -10 -21 -54 -34 -31 -9 -75
-25 -98 -35 -23 -10 -50 -19 -61 -19 -19 0 -19 0 1 20 24 24 173 91 194 87 8
-1 16 -10 18 -19z m1412 13 c0 -13 -50 -44 -58 -36 -4 4 4 15 17 26 25 20 41
24 41 10z m940 -55 c-1 -6 -10 0 -20 13 -11 13 -20 28 -20 35 1 6 10 0 20 -13
11 -13 20 -28 20 -35z m-773 -12 c3 -8 1 -20 -6 -27 -8 -8 -11 -8 -11 0 0 6
-3 18 -6 27 -3 9 -1 16 5 16 7 0 14 -7 18 -16z m-648 -43 c7 -5 10 -14 7 -20
-9 -14 -46 -14 -66 -1 -13 9 -13 11 0 20 19 12 41 12 59 1z m2905 -83 c30 -72
31 -78 12 -78 -17 0 -70 106 -62 125 10 28 23 15 50 -47z m-635 20 c0 -28 -2
-30 -9 -13 -12 28 -12 45 0 45 6 0 10 -15 9 -32z m736 -139 c-1 -83 -26 -442
-31 -448 -2 -2 -14 4 -25 15 l-22 19 6 -37 c4 -21 10 -54 13 -73 7 -38 10 -36
-61 -39 -45 -2 -43 -29 8 -83 69 -75 74 -88 39 -121 -46 -42 -85 -161 -79
-236 4 -38 13 -69 26 -87 25 -33 26 -48 7 -74 -13 -19 -15 -18 -43 12 -30 32
-63 124 -63 174 0 13 9 30 20 37 11 7 20 23 20 37 0 14 7 28 15 31 23 9 18 45
-16 121 -28 62 -31 78 -33 182 -1 95 2 115 15 124 12 7 14 17 8 36 -4 14 -15
62 -24 106 -10 44 -21 94 -26 110 -5 17 -9 35 -10 40 0 6 -7 18 -16 27 -11 12
-13 28 -9 53 3 19 9 51 12 70 7 41 34 54 69 31 29 -19 41 -52 24 -72 -10 -12
-14 -12 -26 6 -19 27 -33 25 -33 -3 0 -75 85 -60 135 24 30 50 39 57 51 38 9
-15 24 9 24 39 0 15 5 22 13 19 8 -2 12 -27 12 -78z m-2481 25 c10 -4 16 -18
16 -40 0 -34 -19 -49 -21 -16 0 10 -3 12 -6 5 -2 -7 -13 -13 -23 -13 -28 0
-31 -12 -13 -49 19 -39 42 -51 55 -28 5 10 18 17 30 17 18 0 20 -4 14 -37 -4
-21 -14 -84 -24 -139 -19 -108 -35 -142 -58 -123 -17 14 -44 102 -44 142 0 22
-13 42 -56 84 -36 35 -53 58 -47 64 14 14 62 -6 102 -44 l35 -32 -29 39 c-57
79 -95 138 -95 151 0 19 126 34 164 19z m-874 -65 c6 -11 9 -25 7 -32 -2 -7
-11 3 -21 21 -9 17 -12 32 -7 32 6 0 15 -9 21 -21z m1100 -109 l35 -29 -27 -1
c-16 0 -28 5 -28 12 0 6 -7 20 -17 30 -26 29 -1 21 37 -12z m-400 -60 c13 -8
13 -11 -2 -26 -16 -16 -16 -19 3 -56 31 -61 35 -117 10 -172 -17 -40 -24 -46
-41 -41 -29 9 -63 -16 -87 -63 -23 -46 -71 -107 -79 -99 -3 3 0 15 6 28 19 34
7 113 -24 159 -32 49 -15 53 32 8 l34 -33 -7 38 c-6 33 -5 37 13 37 21 0 92
72 92 93 0 6 -10 0 -21 -15 -36 -49 -69 -26 -69 47 0 28 5 38 20 42 11 3 20 9
20 14 0 4 10 17 22 29 23 21 54 26 78 10z m-184 -121 c8 -17 12 -39 8 -51 -5
-18 -8 -18 -21 -5 -18 18 -32 104 -14 93 6 -4 18 -21 27 -37z m736 -41 c-9 -9
-13 -7 -17 5 -17 53 -17 53 7 30 17 -18 19 -26 10 -35z m822 37 c17 -2 34 -3
39 -4 18 -3 5 -32 -18 -41 -64 -24 -75 -24 -75 4 0 14 -4 26 -10 26 -5 0 -10
7 -10 16 0 11 6 14 22 8 12 -3 36 -8 52 -9z m-925 -47 c10 -17 6 -18 -56 -18
-38 0 -86 -7 -108 -15 -85 -30 -102 -7 -25 33 57 29 171 29 189 0z m-841 -60
c3 -14 -3 -18 -27 -18 -16 0 -33 -4 -36 -10 -3 -5 -15 -15 -26 -20 -16 -9 -19
-7 -19 14 0 37 26 58 69 54 25 -2 37 -8 39 -20z m520 10 c12 -12 16 -50 6 -60
-3 -3 -18 1 -35 9 -27 13 -38 41 -22 56 10 11 38 8 51 -5z m1395 -25 c22 -20
21 -25 -3 -40 -26 -17 -52 -6 -45 18 4 12 1 21 -9 25 -9 3 -16 11 -16 16 0 14
51 0 73 -19z m-973 -32 c-30 -27 -60 -46 -67 -44 -21 8 -15 20 15 32 15 6 41
22 57 36 55 45 51 25 -5 -24z m-207 4 c21 -21 45 -35 59 -35 14 0 33 -10 44
-21 18 -21 18 -22 1 -33 -25 -15 -127 -120 -149 -154 -33 -50 -19 -47 36 7 30
29 59 50 65 47 6 -4 13 -29 17 -56 8 -62 21 -74 52 -50 22 18 22 20 8 49 -22
41 -20 47 12 60 31 12 108 18 118 9 14 -15 -10 -28 -53 -28 l-47 0 29 -30 c44
-46 41 -109 -12 -228 -41 -94 -83 -146 -83 -103 0 27 -16 26 -65 -4 -43 -27
-53 -29 -73 -16 -17 10 34 62 112 114 31 20 56 42 56 47 0 6 11 15 25 20 31
12 36 60 7 60 -29 0 -54 -24 -77 -71 -14 -31 -27 -45 -43 -47 -21 -3 -23 0
-20 30 3 30 0 33 -26 36 -16 2 -40 11 -54 20 l-24 16 3 -70 c4 -66 3 -69 -20
-72 -29 -5 -71 16 -71 35 0 22 62 126 90 150 14 12 20 23 13 23 -6 0 -15 -6
-19 -12 -10 -15 -22 21 -23 70 -1 25 7 40 29 61 l31 28 -26 11 c-27 13 -34 42
-10 42 18 0 19 12 4 27 -6 6 -8 20 -5 31 6 19 43 72 51 72 2 0 19 -16 38 -35z
m857 15 c0 -5 -9 -14 -20 -20 -19 -10 -20 -10 -8 9 13 22 28 28 28 11z m-1140
-43 c0 -2 -11 -35 -24 -73 -14 -38 -23 -70 -22 -72 2 -1 17 5 35 15 45 26 52
9 45 -102 -5 -73 -3 -94 10 -110 14 -19 15 -16 16 42 0 42 5 66 16 77 19 19
54 21 54 3 0 -17 -58 -187 -103 -305 -46 -119 -59 -164 -45 -160 10 4 19 24
62 141 20 53 36 61 36 19 0 -29 -38 -152 -65 -209 -21 -43 -19 -54 15 -140 17
-41 30 -91 30 -111 l0 -37 -18 23 c-15 19 -20 21 -29 10 -21 -25 -25 -65 -9
-103 21 -49 20 -131 -1 -258 -21 -122 -29 -103 -14 30 12 96 4 160 -22 192
-10 11 -13 9 -18 -10 -4 -13 -8 -40 -8 -59 -1 -32 -3 -33 -13 -15 -7 11 -15
45 -19 75 -5 48 -2 62 23 112 32 63 47 166 30 208 l-10 25 -12 -27 c-22 -47
-33 -36 -45 46 -6 38 -4 51 11 67 24 26 9 71 -26 79 -23 5 -25 10 -25 67 0 50
-6 72 -36 130 -51 96 -36 120 20 33 23 -35 41 -70 41 -78 0 -20 31 -82 41 -82
10 0 34 45 43 83 5 23 3 27 -14 27 -39 0 -56 32 -63 113 -3 41 -10 84 -16 94
-13 26 10 104 44 145 14 16 25 33 25 37 0 13 40 61 51 61 5 0 9 -1 9 -3z m130
-108 c0 -9 -8 -27 -19 -40 l-18 -23 -27 80 c-14 43 -26 82 -26 86 0 4 20 -14
45 -40 25 -26 45 -54 45 -63z m1048 99 c7 -7 12 -17 12 -23 0 -11 -77 -39
-137 -50 -49 -10 -40 11 11 28 24 8 54 25 65 36 24 24 32 26 49 9z m-523 -58
c14 -16 15 -20 4 -20 -16 0 -39 19 -39 32 0 14 16 9 35 -12z m665 -69 c0 -11
-31 -19 -47 -14 -7 3 -13 11 -13 18 0 7 6 15 13 18 14 5 47 -10 47 -22z m-161
-2 c34 -12 41 -33 15 -47 -20 -11 -104 16 -104 33 0 25 40 31 89 14z m-1425
-51 c2 -7 11 -37 21 -66 18 -56 15 -73 -9 -53 -21 17 -50 97 -43 116 8 18 26
20 31 3z m2092 -73 c-1 -53 -15 -44 -23 14 -5 34 -3 40 9 36 10 -4 15 -20 14
-50z m-473 -37 c25 -18 41 -58 16 -42 -6 3 -14 1 -18 -5 -5 -8 -17 2 -34 27
-37 57 -27 63 36 20z m1504 6 c7 -18 -17 -38 -31 -24 -11 11 -1 40 14 40 6 0
13 -7 17 -16z m-3278 -76 c0 -45 -3 -57 -9 -43 -16 36 -11 105 7 105 2 0 3
-28 2 -62z m1892 31 c9 -17 8 -25 -5 -37 -13 -14 -16 -14 -16 -2 0 8 -3 25 -6
38 -8 28 11 29 27 1z m941 -11 c-9 -9 -12 -7 -12 12 0 19 3 21 12 12 9 -9 9
-15 0 -24z m-702 -79 c0 -15 -15 -10 -27 10 -6 10 -9 29 -6 41 6 21 7 20 19
-10 8 -18 14 -36 14 -41z m854 62 c10 -15 -4 -38 -30 -50 -49 -22 -60 -4 -22
36 22 24 43 29 52 14z m456 -118 c0 -11 -5 -11 -20 -3 -25 14 -42 44 -34 65 5
12 11 9 30 -17 13 -17 24 -38 24 -45z m-1570 22 c0 -18 6 -36 13 -38 7 -3 5
-6 -6 -6 -18 -1 -37 34 -37 69 0 13 5 17 15 14 9 -4 15 -19 15 -39z m170 -4
c21 -33 30 -59 28 -78 -3 -26 -6 -23 -36 34 -28 55 -40 93 -28 93 2 0 18 -22
36 -49z m-232 -5 c43 -47 79 -106 63 -106 -5 0 -20 15 -34 34 -14 18 -41 40
-60 49 -40 20 -61 42 -52 57 13 21 44 9 83 -34z m121 -7 c-16 -31 -29 -31 -29
0 0 16 6 31 13 34 17 6 27 -14 16 -34z m1201 2 c7 -17 10 -36 7 -43 -4 -11
-37 49 -37 67 0 16 19 1 30 -24z m216 17 c12 -19 22 -88 13 -88 -5 0 -9 6 -9
14 0 26 -20 28 -40 4 l-20 -23 6 30 c16 70 33 91 50 63z m-1601 -81 c29 -53
29 -57 13 -74 -17 -16 -18 -16 -18 4 0 12 -6 26 -13 30 -28 18 -51 109 -25
101 7 -3 26 -30 43 -61z m1175 22 c0 -17 -4 -28 -10 -24 -5 3 -10 17 -10 31 0
13 5 24 10 24 6 0 10 -14 10 -31z m-972 -81 c-38 -46 -114 -105 -123 -96 -12
12 74 112 107 124 52 18 53 17 16 -28z m-108 -8 c0 -5 -14 -30 -32 -55 -21
-29 -39 -45 -53 -45 -40 0 -36 14 17 62 54 48 68 56 68 38z m1770 -39 c5 -11
10 -32 10 -47 l0 -28 -27 26 c-16 14 -39 31 -52 38 -19 10 -21 14 -10 21 25
16 68 10 79 -10z m-1645 -42 c-16 -30 -35 -39 -35 -16 0 19 30 58 41 52 5 -4
2 -19 -6 -36z m1436 -2 c-10 -9 -11 -8 -5 6 3 10 9 15 12 12 3 -3 0 -11 -7
-18z m-46 -68 c11 -63 -33 -92 -77 -52 -24 21 -23 31 5 35 16 2 23 11 25 33 2
17 5 37 8 45 8 23 31 -13 39 -61z m125 47 c5 -13 12 -40 16 -61 6 -32 4 -37
-15 -42 -33 -8 -42 -68 -26 -159 5 -26 3 -49 -4 -63 -19 -35 -34 -14 -27 38 6
45 6 45 -11 25 -10 -11 -26 -31 -35 -45 l-17 -24 0 33 c-1 19 -5 31 -11 27
-15 -10 -50 14 -50 34 0 30 26 46 55 33 22 -10 26 -9 40 18 8 16 20 64 26 107
6 43 12 84 14 91 7 21 35 13 45 -12z m-1475 -56 c0 -15 -52 -36 -63 -25 -8 8
39 46 53 41 6 -1 10 -9 10 -16z m1065 -29 c5 -11 10 -30 10 -43 -1 -22 -3 -21
-30 12 -17 19 -30 38 -30 42 0 16 40 7 50 -11z m580 0 c0 -13 -81 -81 -96 -81
-7 0 -18 -2 -26 -5 -7 -3 -20 -1 -28 4 -23 16 6 62 35 55 13 -3 36 3 56 15 36
22 59 27 59 12z m-3132 -36 c18 -39 15 -67 -5 -63 -23 4 -48 50 -40 71 9 25
32 21 45 -8z m-209 -40 c25 -66 26 -75 7 -75 -7 0 -19 -13 -26 -30 -7 -16 -16
-30 -20 -30 -12 0 -19 52 -14 100 12 109 23 116 53 35z m1585 33 c8 -32 7 -48
-2 -48 -13 0 -35 47 -28 59 11 18 23 13 30 -11z m1334 -3 c-1 -5 -8 -9 -14 -7
-6 1 -17 -5 -24 -13 -7 -8 -16 -15 -21 -15 -14 0 -11 38 4 44 19 8 58 2 55 -9z
m608 -87 c30 -59 31 -88 4 -88 -13 0 -21 9 -26 28 -3 15 -12 48 -20 74 -8 26
-14 50 -14 54 0 17 34 -24 56 -68z m-168 -10 c7 -7 12 -18 12 -25 0 -19 -27
-4 -33 18 -6 22 3 25 21 7z m-2578 -47 c0 -18 -18 -41 -32 -41 -9 0 -11 41 -2
64 8 21 34 2 34 -23z m2661 -14 c-14 -14 -26 17 -16 41 6 15 8 14 16 -7 6 -16
6 -28 0 -34z m-518 26 c8 -35 2 -106 -10 -110 -6 -2 -17 13 -23 34 -7 21 -16
42 -21 47 -12 14 9 46 31 46 10 0 21 -8 23 -17z m-1948 -61 c-16 -14 -75 -35
-81 -29 -13 12 9 46 34 55 30 10 65 -10 47 -26z m1865 -20 c0 -18 -32 -51 -44
-46 -10 4 -15 -9 -20 -45 -8 -61 -26 -78 -26 -24 0 49 -11 66 -36 56 -17 -6
-17 -5 -5 10 7 9 21 17 31 17 10 0 28 9 41 20 24 19 59 27 59 12z m519 -30
c-13 -38 -65 -99 -75 -89 -13 13 55 117 77 117 4 0 4 -13 -2 -28z m-2863 -16
c-7 -27 -46 -57 -46 -35 0 15 41 71 47 65 3 -3 3 -16 -1 -30z m437 -38 l-11
-33 -1 32 c-1 17 -4 40 -7 50 -6 17 -6 17 11 1 15 -14 17 -22 8 -50z m2525 -3
c4 -42 3 -47 -14 -43 -14 2 -20 13 -22 42 -7 84 26 85 36 1z m-2055 15 c-10
-37 -85 -110 -151 -146 -93 -51 -137 -97 -183 -186 -42 -83 -79 -118 -79 -75
0 29 71 141 95 151 13 5 16 15 13 49 -3 23 -8 50 -12 60 -7 15 -2 17 49 17 70
0 84 7 167 86 67 64 111 84 101 44z m1787 -8 c0 -11 -9 -27 -20 -37 -17 -16
-20 -16 -26 -2 -7 20 13 57 31 57 8 0 15 -8 15 -18z m-547 -13 c-6 -21 -49
-56 -59 -47 -6 7 45 68 56 68 4 0 6 -9 3 -21z m976 -14 c30 -39 36 -82 16
-105 -13 -15 -15 -23 -7 -33 6 -7 15 -25 21 -40 8 -21 8 -27 -2 -27 -33 0 -51
29 -59 91 -5 35 -11 81 -14 102 -7 45 14 51 45 12z m-779 -15 c0 -16 -4 -30
-10 -30 -5 0 -10 14 -10 30 0 17 5 30 10 30 6 0 10 -13 10 -30z m-640 -62 l-7
-33 -7 37 c-5 20 -4 47 0 60 l7 23 8 -27 c4 -14 3 -41 -1 -60z m740 47 c0 -14
-32 -65 -40 -65 -15 0 -12 23 6 48 14 20 34 30 34 17z m449 -42 c21 -88 22
-93 7 -93 -8 0 -18 5 -21 10 -3 6 -21 10 -40 10 -38 0 -51 20 -34 53 35 68 73
76 88 20z m-285 -71 c36 -41 69 -41 74 1 4 34 24 35 42 3 17 -32 8 -51 -31
-72 -52 -26 -155 -113 -168 -140 -10 -24 -41 -34 -41 -14 0 24 42 90 57 90 50
0 70 76 33 123 -11 14 -23 40 -26 59 l-5 33 18 -25 c10 -13 31 -39 47 -58z
m-1574 -19 c0 -20 -3 -24 -11 -16 -7 7 -9 19 -6 27 10 24 17 19 17 -11z m1466
-55 c-4 -23 -25 -87 -48 -143 -22 -55 -56 -140 -75 -190 -19 -49 -39 -94 -44
-99 -21 -23 -7 71 26 165 19 56 35 110 35 119 0 9 9 25 19 34 11 10 32 49 48
87 32 78 49 90 39 27z m-2226 -30 c-1 -35 -3 -40 -11 -25 -10 17 -5 67 6 67 3
0 5 -19 5 -42z m1955 -18 c16 -31 21 -90 7 -90 -10 0 -32 68 -32 99 0 29 7 26
25 -9z m683 -15 c23 -47 29 -91 12 -80 -11 7 -44 68 -54 103 -13 41 19 24 42
-23z m-2203 -6 c25 -22 35 -39 35 -60 0 -16 -4 -29 -9 -29 -24 0 -98 100 -84
114 11 11 22 6 58 -25z m255 23 c0 -10 -45 -32 -63 -32 -17 1 32 40 49 40 8 0
14 -4 14 -8z m1184 -34 c9 -35 7 -168 -3 -168 -12 0 -21 52 -21 126 0 64 12
85 24 42z m618 -28 c-1 -33 19 -78 40 -91 10 -7 10 -12 -4 -25 -21 -21 -35
-12 -48 34 -14 53 -14 140 2 124 6 -6 11 -25 10 -42z m390 -15 c66 -75 107
-155 79 -155 -18 0 -141 178 -141 203 0 13 24 -6 62 -48z m-2732 -44 c10 -7
13 -28 12 -82 -2 -40 -5 -76 -8 -81 -14 -22 -23 -1 -26 60 -3 57 -6 67 -20 66
-21 -2 -22 1 -8 27 12 21 27 24 50 10z m-151 -58 c0 -42 -3 -52 -9 -38 -15 35
-11 95 7 95 2 0 3 -26 2 -57z m2041 -23 c-11 -22 -26 -64 -34 -94 -8 -30 -20
-65 -28 -78 l-13 -23 -3 28 c-5 44 26 134 59 172 17 19 33 35 35 35 3 0 -5
-18 -16 -40z m-274 -11 c10 -28 9 -35 -3 -37 -25 -6 -46 23 -39 53 9 34 28 27
42 -16z m-1237 5 c11 -25 7 -64 -7 -64 -13 0 -54 69 -47 79 12 20 42 11 54
-15z m-262 -3 c7 -11 22 -21 34 -23 20 -3 18 -6 -19 -32 -46 -31 -72 -29 -72
6 0 24 25 68 38 68 4 0 13 -9 19 -19z m2194 -42 c12 -24 1 -69 -18 -69 -16 0
-47 66 -39 85 7 18 44 7 57 -16z m126 -6 c-9 -9 -19 -14 -23 -11 -10 10 6 28
24 28 15 0 15 -1 -1 -17z m220 -5 c-3 -8 -6 -5 -6 6 -1 11 2 17 5 13 3 -3 4
-12 1 -19z m-3602 -94 c-8 -13 -20 -24 -27 -24 -15 0 -1 79 20 110 l17 25 3
-43 c2 -28 -3 -53 -13 -68z m3106 30 c4 -22 8 -59 8 -84 l0 -45 -15 29 c-17
30 -35 135 -27 149 9 14 24 -9 34 -49z m-85 -22 c-12 -12 -18 8 -10 35 l8 28
4 -28 c2 -16 1 -31 -2 -35z m490 13 c-7 -24 -16 -48 -20 -52 -5 -4 -6 -2 -2 5
4 6 3 12 -2 12 -5 0 -16 -15 -23 -32 -7 -18 -21 -39 -31 -46 -22 -16 -24 -42
-3 -42 17 0 19 -9 5 -30 -8 -13 -11 -12 -24 5 -17 22 -19 38 -10 84 5 24 11
30 24 26 20 -6 34 9 45 45 9 32 33 70 44 70 4 0 3 -20 -3 -45z m-3416 -55 c0
-4 -9 -15 -20 -25 -18 -16 -20 -16 -26 -1 -8 21 13 47 32 39 8 -3 14 -8 14
-13z m2518 -80 c0 -25 -3 -54 -8 -65 -6 -13 -8 11 -8 70 0 60 3 82 8 65 4 -14
8 -45 8 -70z m322 34 c12 -32 13 -91 1 -98 -21 -13 -43 49 -34 95 7 36 20 37
33 3z m-1685 0 c34 -14 36 -17 22 -31 -12 -12 -34 -15 -87 -14 -65 2 -78 -2
-136 -34 -61 -33 -85 -43 -71 -29 3 4 2 14 -3 24 -14 26 12 44 105 74 94 30
120 31 170 10z m1235 -54 c0 -16 -4 -30 -9 -30 -13 0 -21 27 -15 45 10 25 24
17 24 -15z m814 20 c14 -5 30 -18 35 -29 10 -17 7 -21 -25 -31 -29 -10 -41
-10 -63 1 -32 17 -41 28 -34 46 7 19 23 16 24 -4 0 -14 3 -13 11 5 12 25 17
26 52 12z m-3148 -42 c14 -22 23 -93 17 -130 -6 -40 -28 -52 -40 -21 -12 31
-23 -26 -30 -154 -3 -67 -10 -123 -15 -123 -4 0 -8 39 -8 88 0 72 12 157 46
330 5 24 19 29 30 10z m740 -35 c-11 -11 -19 6 -11 24 8 17 8 17 12 0 3 -10 2
-21 -1 -24z m-136 -24 c0 -29 -18 -59 -36 -59 -13 0 -15 6 -9 27 12 50 45 73
45 32z m2563 4 c3 -5 -18 -18 -47 -30 l-51 -23 33 30 c31 29 56 38 65 23z
m-465 -65 c2 -45 0 -57 -14 -62 -9 -4 -19 -5 -21 -2 -7 7 -6 59 2 94 11 50 30
33 33 -30z m-77 10 c14 -53 7 -125 -15 -146 -14 -14 -18 -15 -31 -1 -14 14
-11 59 11 167 7 35 22 26 35 -20z m235 -6 c16 -40 0 -32 -22 10 -10 20 -12 29
-4 26 7 -2 18 -18 26 -36z m-1982 -42 c-9 -16 -21 -30 -29 -30 -7 0 -18 -7
-25 -15 -16 -19 -30 -19 -30 -1 0 25 50 76 75 76 23 0 23 -1 9 -30z m1525 -45
c0 -40 -21 -97 -36 -103 -18 -5 -17 43 3 108 17 57 34 54 33 -5z m-99 -37 c0
-38 -16 -44 -24 -8 -7 37 3 68 15 48 5 -7 9 -25 9 -40z m155 -10 c-7 -27 -9
-30 -15 -14 -9 27 0 70 12 58 6 -6 7 -24 3 -44z m411 -66 l29 -21 -24 -1 c-14
0 -38 12 -53 27 -23 22 -28 35 -27 72 l0 46 23 -51 c13 -28 36 -60 52 -72z
m-355 45 c-8 -8 -11 -2 -11 19 0 40 14 54 18 19 2 -15 -1 -32 -7 -38z m-111
-181 c-23 -62 -41 -29 -18 34 10 32 12 32 19 12 5 -12 4 -33 -1 -46z m-131
-15 c17 -79 25 -207 13 -215 -15 -9 -23 20 -28 99 -3 39 -6 91 -9 118 -5 62
10 61 24 -2z m-1494 -26 c23 -22 34 -55 19 -55 -3 0 -17 8 -30 19 -18 14 -34
17 -69 13 -54 -6 -61 12 -12 33 46 20 65 18 92 -10z m1838 -20 c26 -3 47 -10
47 -15 0 -14 -82 -59 -121 -67 -31 -6 -33 -5 -20 10 8 10 12 31 9 52 -3 30 -1
34 17 30 11 -2 41 -7 68 -10z m-1763 -128 c0 -13 -9 -32 -20 -42 -23 -20 -25
-12 -9 34 13 37 29 41 29 8z m1580 0 c0 -2 -10 -12 -21 -23 -22 -19 -22 -19
-10 4 10 18 31 31 31 19z m-244 -15 c21 -14 24 -46 10 -96 -23 -79 -96 -228
-109 -223 -14 4 -26 63 -26 122 0 40 6 35 23 -19 6 -18 7 -18 26 -1 37 33 79
185 52 185 -5 0 -17 -9 -27 -20 -13 -15 -21 -17 -31 -9 -17 14 -7 37 25 54 30
16 42 18 57 7z m484 -23 c0 -24 -42 -79 -61 -79 -17 0 -57 46 -48 54 33 29
109 46 109 25z m-630 -35 c0 -21 -4 -33 -10 -29 -17 10 -11 65 7 65 2 0 3 -16
3 -36z m302 -26 c-7 -7 -12 -8 -12 -2 0 14 12 26 19 19 2 -3 -1 -11 -7 -17z
m50 -45 c-32 -44 -176 -181 -162 -154 15 29 171 193 178 187 2 -3 -5 -17 -16
-33z m316 13 c4 -20 -15 -46 -34 -46 -17 0 -18 24 -3 51 12 23 32 20 37 -5z
m-249 -92 c-18 -22 -20 -12 -7 32 12 37 12 38 16 11 2 -16 -2 -35 -9 -43z
m-209 31 c-7 -8 -17 -15 -23 -15 -5 0 -2 9 8 20 21 23 35 19 15 -5z m-283
-115 c3 -33 3 -60 -1 -60 -17 0 -52 153 -39 174 10 16 33 -48 40 -114z m543
48 c0 -9 -34 -11 -43 -2 -3 4 -1 16 5 27 10 20 11 20 24 2 8 -10 14 -22 14
-27z m-120 -12 c0 -27 -112 -117 -128 -101 -8 8 101 115 117 115 6 0 11 -6 11
-14z m113 -46 c-4 -16 -7 -17 -19 -5 -19 18 -18 25 5 25 14 0 18 -5 14 -20z
m-574 -105 c13 -46 15 -155 3 -155 -7 0 -32 109 -50 215 l-5 30 21 -25 c11
-14 25 -43 31 -65z m261 -41 c0 -15 -16 -19 -23 -6 -2 4 -7 21 -11 37 l-6 30
20 -24 c11 -13 20 -29 20 -37z m-179 -1 c-10 -17 -10 -16 -11 3 0 23 13 41 18
25 2 -6 -1 -18 -7 -28z m-351 -33 c0 -11 -2 -20 -4 -20 -2 0 -12 -3 -21 -6
-14 -6 -14 -3 -4 20 14 31 29 34 29 6z m680 -53 c0 -39 -22 -73 -39 -63 -21
13 5 96 30 96 5 0 9 -15 9 -33z m-585 -7 c3 -5 2 -10 -4 -10 -5 0 -13 5 -16
10 -3 6 -2 10 4 10 5 0 13 -4 16 -10z m115 -72 c0 -10 -4 -18 -9 -18 -11 0
-21 25 -21 53 0 20 0 20 15 1 8 -10 15 -27 15 -36z m-456 -10 c18 -36 11 -53
-10 -24 -13 18 -20 56 -10 56 3 0 12 -14 20 -32z m396 -16 c0 -6 -11 -22 -25
-34 -14 -12 -25 -32 -25 -47 0 -14 -5 -33 -10 -41 -8 -13 -10 -13 -10 1 0 9
-3 36 -6 61 -5 38 -3 48 21 76 26 31 28 31 41 15 7 -10 14 -24 14 -31z m-280
10 c0 -5 -9 -17 -20 -27 -19 -18 -20 -17 -20 2 0 11 3 23 7 26 9 10 33 9 33
-1z m175 -3 c11 -17 -1 -21 -15 -4 -8 9 -8 15 -2 15 6 0 14 -5 17 -11z m280
-49 c16 -18 17 -25 7 -54 -16 -43 -15 -56 2 -56 8 0 18 -5 21 -11 10 -15 -3
-59 -18 -59 -12 0 -68 150 -67 183 0 23 33 22 55 -3z m220 -37 c-13 -27 -36
-75 -51 -108 -28 -60 -28 -60 -32 -27 -4 39 26 102 71 150 17 17 32 32 34 32
1 0 -9 -21 -22 -47z m-535 -32 c5 -11 10 -25 10 -32 0 -18 -27 7 -33 31 -7 26
9 26 23 1z m-90 -40 c0 -27 -17 -35 -23 -11 -5 19 0 30 15 30 4 0 8 -9 8 -19z
m300 -48 c-5 -21 -14 -45 -20 -53 -8 -13 -11 -12 -23 4 -7 10 -22 16 -33 14
-15 -3 -19 -12 -19 -50 0 -25 -3 -50 -7 -54 -5 -4 -8 -2 -8 4 0 6 -7 18 -16
26 -14 14 -14 21 -2 59 15 45 66 85 75 60 3 -7 12 -13 20 -13 8 0 13 6 10 13
-2 6 0 23 5 37 8 22 10 23 19 8 6 -12 6 -31 -1 -55z m-361 -11 c13 -45 -3 -69
-19 -28 -13 34 -13 79 0 71 5 -3 14 -22 19 -43z m-1370 -39 c19 -27 20 -27 21
-6 0 12 5 25 10 28 11 7 40 -53 40 -83 0 -17 -5 -18 -42 -12 -47 9 -68 31 -68
72 0 35 13 36 39 1z m1321 -129 c0 -19 -4 -34 -10 -34 -5 0 -10 18 -10 41 0
24 4 38 10 34 6 -3 10 -22 10 -41z m-189 -93 c31 -49 35 -66 19 -76 -6 -4 -18
11 -26 32 -9 21 -32 55 -50 76 -19 20 -34 42 -34 48 0 20 62 -34 91 -80z
m-1104 59 c4 -14 14 -20 33 -20 34 0 98 -66 81 -83 -8 -8 -18 -4 -34 11 -29
28 -37 28 -37 0 0 -21 -1 -21 -14 -3 -8 12 -19 16 -30 12 -10 -4 -34 0 -53 10
l-35 16 26 14 c14 7 29 25 32 38 7 30 24 33 31 5z m919 9 c11 -19 -20 -41 -49
-33 -28 6 -36 29 -14 37 22 10 56 7 63 -4z m310 -5 c2 -5 -15 -21 -36 -36 -31
-21 -40 -24 -40 -12 0 35 68 78 76 48z m-445 -46 c42 -65 62 -108 49 -108 -5
0 -19 14 -32 30 -13 18 -31 30 -45 30 -20 0 -23 5 -23 43 0 37 6 57 15 57 1 0
18 -24 36 -52z m-558 -14 c-2 -9 -36 -21 -65 -23 -17 -1 -34 32 -24 48 7 11
92 -13 89 -25z m127 -28 c0 -38 28 -66 65 -66 39 0 65 -8 65 -21 0 -21 -75 -8
-122 21 -55 34 -74 38 -60 13 9 -15 3 -33 -25 -72 -6 -9 -74 32 -70 42 2 7 29
25 60 41 60 30 73 56 40 75 -16 9 -16 12 -3 21 19 12 50 -21 50 -54z m100 14
c0 -21 -15 -27 -25 -10 -7 12 2 30 16 30 5 0 9 -9 9 -20z m216 -6 c4 -15 3
-43 -2 -63 -12 -50 -43 -49 -67 1 -22 45 -15 62 24 54 24 -4 27 -2 24 14 -6
30 14 24 21 -6z m754 13 c0 -7 -7 -23 -16 -36 -24 -33 -43 -11 -20 23 18 28
36 34 36 13z m127 -63 c-19 -53 -20 -58 -4 -87 22 -42 38 -117 25 -117 -18 0
-51 95 -56 162 -5 72 5 98 38 98 17 0 16 -4 -3 -56z m-594 32 c24 -18 22 -23
-13 -31 -38 -8 -66 10 -49 31 14 17 39 17 62 0z m-906 -48 c-3 -8 -6 -5 -6 6
-1 11 2 17 5 13 3 -3 4 -12 1 -19z m53 -56 c0 -10 -7 -27 -15 -38 -14 -19 -14
-19 -15 3 0 28 10 53 21 53 5 0 9 -8 9 -18z m898 -40 c10 -7 8 -12 -5 -25 -22
-19 -49 -7 -40 17 7 17 25 20 45 8z m-388 -33 c6 -10 10 -26 10 -35 0 -15 -4
-14 -25 6 -28 26 -35 63 -10 54 9 -4 20 -15 25 -25z m543 24 c8 -15 -14 -73
-27 -73 -15 0 -66 55 -66 71 0 11 87 12 93 2z m-243 -33 c0 -24 -21 -70 -32
-70 -9 0 -11 51 -2 74 9 23 34 20 34 -4z m390 2 c0 -18 -39 -43 -62 -40 -22 3
-21 5 12 26 38 24 50 27 50 14z m-965 -21 c0 -16 -31 -38 -40 -29 -4 4 -4 16
0 28 7 23 40 24 40 1z m-185 -10 c15 -28 14 -31 -25 -47 -53 -22 -71 -2 -39
44 19 27 50 29 64 3z m-130 -31 c0 -30 -13 -40 -25 -20 -8 13 4 50 16 50 5 0
9 -13 9 -30z m671 -9 c20 -16 22 -21 10 -35 -12 -14 -17 -15 -27 -4 -16 18
-28 58 -16 58 5 0 20 -8 33 -19z m-237 -84 c-9 -24 -24 -11 -24 21 0 24 2 25
15 11 9 -9 13 -23 9 -32z m1059 26 c8 -7 -31 -53 -45 -53 -10 0 -11 44 -1 53
8 9 38 9 46 0z m-1275 -126 c2 -19 -1 -27 -13 -27 -19 0 -30 24 -21 46 9 23
31 11 34 -19z m446 -44 c-26 -106 -60 -142 -52 -55 5 54 21 82 44 82 11 0 13
-7 8 -27z m-124 -33 c0 -30 -13 -40 -25 -20 -8 13 4 50 16 50 5 0 9 -13 9 -30z
m-260 -8 c0 -16 -6 -36 -13 -46 -12 -17 -14 -17 -20 -3 -7 19 11 77 24 77 5 0
9 -13 9 -28z"/>
<path d="M1890 7967 c1 -28 41 -58 120 -91 47 -19 130 -57 185 -85 55 -28 107
-51 115 -51 23 0 119 -47 169 -83 67 -48 221 -130 229 -122 7 7 -11 24 -102
92 -35 27 -56 50 -56 63 0 11 -4 20 -9 20 -5 0 -12 8 -15 18 -4 12 -24 23 -59
31 -72 19 -120 44 -164 89 -21 20 -41 36 -46 34 -4 -1 -40 12 -80 30 -49 22
-90 32 -130 34 -32 1 -65 8 -73 15 -20 16 -84 21 -84 6z m620 -242 c16 -19 3
-19 -30 0 -24 13 -24 14 -4 15 12 0 27 -7 34 -15z"/>
<path d="M7783 6789 c-42 -12 -42 -25 0 -33 36 -7 117 13 120 29 3 13 -80 16
-120 4z"/>
<path d="M7707 6697 c-38 -30 -57 -89 -45 -136 23 -82 65 -82 120 -1 34 51 63
134 52 152 -3 4 -26 8 -52 8 -34 0 -55 -6 -75 -23z"/>
<path d="M6930 5869 c0 -40 100 -163 118 -145 9 10 -28 81 -66 124 -42 47 -52
51 -52 21z"/>
<path d="M7796 8021 c-6 -9 43 -35 52 -27 2 3 2 12 -1 21 -7 16 -42 21 -51 6z"/>
<path d="M3342 7168 c3 -7 26 -28 51 -46 l47 -34 0 26 c0 19 -9 32 -32 46 -37
22 -72 26 -66 8z"/>
<path d="M2337 5343 c-28 -7 -9 -23 29 -23 24 0 34 4 32 13 -5 13 -32 18 -61
10z"/>
<path d="M4657 3877 c-15 -15 -27 -18 -63 -12 -24 3 -44 3 -44 0 0 -9 60 -87
79 -102 8 -7 24 -13 34 -13 19 0 19 1 4 18 -21 23 -21 35 -1 73 20 40 15 61
-9 36z"/>
<path d="M4198 3606 c-10 -20 -13 -38 -8 -47 12 -18 20 -8 30 35 10 47 -2 54
-22 12z"/>
<path d="M6036 2798 c-9 -36 -7 -86 4 -93 6 -4 10 17 10 54 0 65 -4 75 -14 39z"/>
<path d="M5275 2708 c-4 -16 -1 -36 9 -55 l15 -28 0 35 c0 19 -4 44 -9 55 -7
19 -8 18 -15 -7z"/>
<path d="M4307 2510 c-23 -34 -22 -82 4 -106 24 -21 52 -10 57 23 2 16 -4 22
-28 26 -28 6 -30 9 -20 27 6 12 10 29 8 38 -3 14 -6 13 -21 -8z"/>
<path d="M5747 2438 c-3 -12 -2 -29 3 -37 7 -12 9 -6 10 22 0 42 -5 48 -13 15z"/>
<path d="M4042 2069 c-12 -15 -34 -54 -49 -86 -34 -73 -38 -196 -10 -287 23
-72 31 -67 68 47 l28 82 -6 -79 c-6 -77 -6 -78 15 -67 17 9 23 8 31 -6 10 -17
10 -16 11 2 0 30 -29 195 -42 235 -6 19 -14 69 -17 110 l-6 76 -23 -27z m-22
-234 c0 -24 -4 -47 -10 -50 -6 -4 -10 15 -10 50 0 35 4 54 10 50 6 -3 10 -26
10 -50z"/>
<path d="M3900 1905 c0 -19 5 -35 10 -35 6 0 10 16 10 35 0 19 -4 35 -10 35
-5 0 -10 -16 -10 -35z"/>
<path d="M5273 1399 c3 -13 12 -49 18 -79 l12 -55 10 33 c8 25 6 41 -8 73 -21
46 -41 64 -32 28z"/>
<path d="M3875 1398 c-16 -44 -8 -88 15 -88 28 0 44 38 31 73 -11 28 -38 37
-46 15z"/>
<path d="M3951 1321 c-24 -33 -28 -76 -7 -84 22 -9 46 26 46 66 0 47 -14 54
-39 18z"/>
<path d="M5230 1340 c-1 -30 -48 -116 -103 -190 -32 -41 -57 -81 -57 -87 0
-28 38 -10 81 40 95 109 123 173 95 224 -8 15 -15 21 -16 13z"/>
<path d="M6516 4908 c-18 -25 -22 -88 -6 -88 11 0 50 73 50 95 0 22 -27 18
-44 -7z"/>
</g>
</svg>
